<svg style="background-color:#dddddd" width="689.6999999999999" height="233.70000000000002"><path stroke="black" fill="white" fill-opacity="1.0" d="M 0, 233.70000000000002 L 689.6999999999999, 233.70000000000002 L 689.6999999999999, 0 L 0, 0 Z"/><path stroke="black" fill="white" fill-opacity="0.0" d="M 33, 31 L 34.6, 31 L 34.6, 7 L 33, 7 L 33, 5 L 5, 5 L 5, 7 L 3.4, 7 L 3.4, 31 L 5, 31 L 5, 33 L 33, 33 Z"/><path stroke="black" fill="white" fill-opacity="0.0" d="M 90, 31 L 91.6, 31 L 91.6, 7 L 90, 7 L 90, 5 L 62, 5 L 62, 7 L 60.4, 7 L 60.4, 31 L 62, 31 L 62, 33 L 90, 33 Z"/><path stroke="black" fill="white" fill-opacity="0.0" d="M 128, 31 L 129.6, 31 L 129.6, 7 L 128, 7 L 128, 5 L 100, 5 L 100, 7 L 98.4, 7 L 98.4, 31 L 100, 31 L 100, 33 L 128, 33 Z"/><path stroke="black" fill="white" fill-opacity="0.0" d="M 166, 31 L 167.6, 31 L 167.6, 7 L 166, 7 L 166, 5 L 138, 5 L 138, 7 L 136.4, 7 L 136.4, 31 L 138, 31 L 138, 33 L 166, 33 Z"/><path stroke="black" fill="white" fill-opacity="0.0" d="M 204, 31 L 205.6, 31 L 205.6, 7 L 204, 7 L 204, 5 L 176, 5 L 176, 7 L 174.4, 7 L 174.4, 31 L 176, 31 L 176, 33 L 204, 33 Z"/><path stroke="black" fill="white" fill-opacity="0.0" d="M 242, 31 L 243.6, 31 L 243.6, 7 L 242, 7 L 242, 5 L 214, 5 L 214, 7 L 212.4, 7 L 212.4, 31 L 214, 31 L 214, 33 L 242, 33 Z"/><path stroke="black" fill="white" fill-opacity="0.0" d="M 280, 31 L 281.6, 31 L 281.6, 7 L 280, 7 L 280, 5 L 252, 5 L 252, 7 L 250.4, 7 L 250.4, 31 L 252, 31 L 252, 33 L 280, 33 Z"/><path stroke="black" fill="white" fill-opacity="0.0" d="M 318, 31 L 319.6, 31 L 319.6, 7 L 318, 7 L 318, 5 L 290, 5 L 290, 7 L 288.4, 7 L 288.4, 31 L 290, 31 L 290, 33 L 318, 33 Z"/><path stroke="black" fill="white" fill-opacity="0.0" d="M 356, 31 L 357.6, 31 L 357.6, 7 L 356, 7 L 356, 5 L 328, 5 L 328, 7 L 326.4, 7 L 326.4, 31 L 328, 31 L 328, 33 L 356, 33 Z"/><path stroke="black" fill="white" fill-opacity="0.0" d="M 394, 31 L 395.6, 31 L 395.6, 7 L 394, 7 L 394, 5 L 366, 5 L 366, 7 L 364.4, 7 L 364.4, 31 L 366, 31 L 366, 33 L 394, 33 Z"/><path stroke="black" fill="white" fill-opacity="0.0" d="M 432, 31 L 433.6, 31 L 433.6, 7 L 432, 7 L 432, 5 L 404, 5 L 404, 7 L 402.4, 7 L 402.4, 31 L 404, 31 L 404, 33 L 432, 33 Z"/><path stroke="black" fill="white" fill-opacity="0.0" d="M 470, 31 L 471.6, 31 L 471.6, 7 L 470, 7 L 470, 5 L 442, 5 L 442, 7 L 440.4, 7 L 440.4, 31 L 442, 31 L 442, 33 L 470, 33 Z"/><path stroke="black" fill="white" fill-opacity="0.0" d="M 508, 31 L 509.6, 31 L 509.6, 7 L 508, 7 L 508, 5 L 480, 5 L 480, 7 L 478.4, 7 L 478.4, 31 L 480, 31 L 480, 33 L 508, 33 Z"/><path stroke="black" fill="white" fill-opacity="0.0" d="M 565, 31 L 566.6, 31 L 566.6, 7 L 565, 7 L 565, 5 L 537, 5 L 537, 7 L 535.4, 7 L 535.4, 31 L 537, 31 L 537, 33 L 565, 33 Z"/><path stroke="black" fill="white" fill-opacity="0.0" d="M 608.7, 31 L 610.3, 31 L 610.3, 7 L 608.7, 7 L 608.7, 5 L 580.7, 5 L 580.7, 7 L 579.1, 7 L 579.1, 31 L 580.7, 31 L 580.7, 33 L 608.7, 33 Z"/><path stroke="black" fill="white" fill-opacity="0.0" d="M 646.7, 31 L 648.3, 31 L 648.3, 7 L 646.7, 7 L 646.7, 5 L 618.7, 5 L 618.7, 7 L 617.1, 7 L 617.1, 31 L 618.7, 31 L 618.7, 33 L 646.7, 33 Z"/><path stroke="black" fill="white" fill-opacity="0.0" d="M 684.7, 31 L 686.3, 31 L 686.3, 7 L 684.7, 7 L 684.7, 5 L 656.7, 5 L 656.7, 7 L 655.1, 7 L 655.1, 31 L 656.7, 31 L 656.7, 33 L 684.7, 33 Z"/><path stroke="black" fill="white" fill-opacity="0.0" d="M 608.7, 69 L 610.3, 69 L 610.3, 45 L 608.7, 45 L 608.7, 43 L 580.7, 43 L 580.7, 45 L 579.1, 45 L 579.1, 69 L 580.7, 69 L 580.7, 71 L 608.7, 71 Z"/><path stroke="black" fill="white" fill-opacity="0.0" d="M 646.7, 69 L 648.3, 69 L 648.3, 45 L 646.7, 45 L 646.7, 43 L 618.7, 43 L 618.7, 45 L 617.1, 45 L 617.1, 69 L 618.7, 69 L 618.7, 71 L 646.7, 71 Z"/><path stroke="black" fill="white" fill-opacity="0.0" d="M 684.7, 69 L 686.3, 69 L 686.3, 45 L 684.7, 45 L 684.7, 43 L 656.7, 43 L 656.7, 45 L 655.1, 45 L 655.1, 69 L 656.7, 69 L 656.7, 71 L 684.7, 71 Z"/><path stroke="black" fill="white" fill-opacity="0.0" d="M 33, 74.70000000000002 L 34.6, 74.70000000000002 L 34.6, 50.70000000000002 L 33, 50.70000000000002 L 33, 48.70000000000002 L 5, 48.70000000000002 L 5, 50.70000000000002 L 3.4, 50.70000000000002 L 3.4, 74.70000000000002 L 5, 74.70000000000002 L 5, 76.70000000000002 L 33, 76.70000000000002 Z"/><path stroke="black" fill="white" fill-opacity="0.0" d="M 71, 74.70000000000002 L 72.6, 74.70000000000002 L 72.6, 50.70000000000002 L 71, 50.70000000000002 L 71, 48.70000000000002 L 43, 48.70000000000002 L 43, 50.70000000000002 L 41.4, 50.70000000000002 L 41.4, 74.70000000000002 L 43, 74.70000000000002 L 43, 76.70000000000002 L 71, 76.70000000000002 Z"/><path stroke="black" fill="white" fill-opacity="0.0" d="M 109, 74.70000000000002 L 110.6, 74.70000000000002 L 110.6, 50.70000000000002 L 109, 50.70000000000002 L 109, 48.70000000000002 L 81, 48.70000000000002 L 81, 50.70000000000002 L 79.4, 50.70000000000002 L 79.4, 74.70000000000002 L 81, 74.70000000000002 L 81, 76.70000000000002 L 109, 76.70000000000002 Z"/><path stroke="black" fill="white" fill-opacity="0.0" d="M 147, 74.70000000000002 L 148.6, 74.70000000000002 L 148.6, 50.70000000000002 L 147, 50.70000000000002 L 147, 48.70000000000002 L 119, 48.70000000000002 L 119, 50.70000000000002 L 117.4, 50.70000000000002 L 117.4, 74.70000000000002 L 119, 74.70000000000002 L 119, 76.70000000000002 L 147, 76.70000000000002 Z"/><path stroke="black" fill="white" fill-opacity="0.0" d="M 185, 74.70000000000002 L 186.6, 74.70000000000002 L 186.6, 50.70000000000002 L 185, 50.70000000000002 L 185, 48.70000000000002 L 157, 48.70000000000002 L 157, 50.70000000000002 L 155.4, 50.70000000000002 L 155.4, 74.70000000000002 L 157, 74.70000000000002 L 157, 76.70000000000002 L 185, 76.70000000000002 Z"/><path stroke="black" fill="white" fill-opacity="0.0" d="M 223, 74.70000000000002 L 224.6, 74.70000000000002 L 224.6, 50.70000000000002 L 223, 50.70000000000002 L 223, 48.70000000000002 L 195, 48.70000000000002 L 195, 50.70000000000002 L 193.4, 50.70000000000002 L 193.4, 74.70000000000002 L 195, 74.70000000000002 L 195, 76.70000000000002 L 223, 76.70000000000002 Z"/><path stroke="black" fill="white" fill-opacity="0.0" d="M 261, 74.70000000000002 L 262.6, 74.70000000000002 L 262.6, 50.70000000000002 L 261, 50.70000000000002 L 261, 48.70000000000002 L 233, 48.70000000000002 L 233, 50.70000000000002 L 231.4, 50.70000000000002 L 231.4, 74.70000000000002 L 233, 74.70000000000002 L 233, 76.70000000000002 L 261, 76.70000000000002 Z"/><path stroke="black" fill="white" fill-opacity="0.0" d="M 299, 74.70000000000002 L 300.6, 74.70000000000002 L 300.6, 50.70000000000002 L 299, 50.70000000000002 L 299, 48.70000000000002 L 271, 48.70000000000002 L 271, 50.70000000000002 L 269.4, 50.70000000000002 L 269.4, 74.70000000000002 L 271, 74.70000000000002 L 271, 76.70000000000002 L 299, 76.70000000000002 Z"/><path stroke="black" fill="white" fill-opacity="0.0" d="M 337, 74.70000000000002 L 338.6, 74.70000000000002 L 338.6, 50.70000000000002 L 337, 50.70000000000002 L 337, 48.70000000000002 L 309, 48.70000000000002 L 309, 50.70000000000002 L 307.4, 50.70000000000002 L 307.4, 74.70000000000002 L 309, 74.70000000000002 L 309, 76.70000000000002 L 337, 76.70000000000002 Z"/><path stroke="black" fill="white" fill-opacity="0.0" d="M 375, 74.70000000000002 L 376.6, 74.70000000000002 L 376.6, 50.70000000000002 L 375, 50.70000000000002 L 375, 48.70000000000002 L 347, 48.70000000000002 L 347, 50.70000000000002 L 345.4, 50.70000000000002 L 345.4, 74.70000000000002 L 347, 74.70000000000002 L 347, 76.70000000000002 L 375, 76.70000000000002 Z"/><path stroke="black" fill="white" fill-opacity="0.0" d="M 413, 74.70000000000002 L 414.6, 74.70000000000002 L 414.6, 50.70000000000002 L 413, 50.70000000000002 L 413, 48.70000000000002 L 385, 48.70000000000002 L 385, 50.70000000000002 L 383.4, 50.70000000000002 L 383.4, 74.70000000000002 L 385, 74.70000000000002 L 385, 76.70000000000002 L 413, 76.70000000000002 Z"/><path stroke="black" fill="white" fill-opacity="0.0" d="M 451, 74.70000000000002 L 452.6, 74.70000000000002 L 452.6, 50.70000000000002 L 451, 50.70000000000002 L 451, 48.70000000000002 L 423, 48.70000000000002 L 423, 50.70000000000002 L 421.4, 50.70000000000002 L 421.4, 74.70000000000002 L 423, 74.70000000000002 L 423, 76.70000000000002 L 451, 76.70000000000002 Z"/><path stroke="black" fill="white" fill-opacity="0.0" d="M 489, 74.70000000000002 L 490.6, 74.70000000000002 L 490.6, 50.70000000000002 L 489, 50.70000000000002 L 489, 48.70000000000002 L 461, 48.70000000000002 L 461, 50.70000000000002 L 459.4, 50.70000000000002 L 459.4, 74.70000000000002 L 461, 74.70000000000002 L 461, 76.70000000000002 L 489, 76.70000000000002 Z"/><path stroke="black" fill="white" fill-opacity="0.0" d="M 511.5, 76.23999999999998 L 514.85, 76.23999999999998 L 514.85, 74.64000000000001 L 516.4, 74.64000000000001 L 516.4, 74.70000000000002 L 518, 74.70000000000002 L 518, 76.70000000000002 L 546, 76.70000000000002 L 546, 74.70000000000002 L 547.6, 74.70000000000002 L 547.6, 74.64000000000001 L 549.15, 74.64000000000001 L 549.15, 76.23999999999998 L 552.5, 76.23999999999998 L 552.5, 78.22400000000002 L 559.1, 78.22400000000002 L 559.1, 76.23999999999998 L 562.45, 76.23999999999998 L 562.45, 63.70000000000002 L 564.2, 63.70000000000002 L 564.2, 58.099999999999994 L 562.45, 58.099999999999994 L 562.45, 51.640000000000015 L 559.1, 51.640000000000015 L 559.1, 50.22399999999999 L 552.5, 50.22399999999999 L 552.5, 51.640000000000015 L 549.15, 51.640000000000015 L 549.15, 53.24000000000001 L 547.6, 53.24000000000001 L 547.6, 50.70000000000002 L 546, 50.70000000000002 L 546, 48.70000000000002 L 518, 48.70000000000002 L 518, 50.70000000000002 L 516.4, 50.70000000000002 L 516.4, 53.24000000000001 L 514.85, 53.24000000000001 L 514.85, 51.640000000000015 L 511.5, 51.640000000000015 L 511.5, 50.22399999999999 L 504.9, 50.22399999999999 L 504.9, 51.640000000000015 L 501.55, 51.640000000000015 L 501.55, 58.099999999999994 L 499.8, 58.099999999999994 L 499.8, 63.70000000000002 L 501.55, 63.70000000000002 L 501.55, 76.23999999999998 L 504.9, 76.23999999999998 L 504.9, 78.22400000000002 L 511.5, 78.22400000000002 Z"/><path stroke="black" fill="white" fill-opacity="0.0" d="M 608.7, 107 L 610.3, 107 L 610.3, 83 L 608.7, 83 L 608.7, 81 L 580.7, 81 L 580.7, 83 L 579.1, 83 L 579.1, 107 L 580.7, 107 L 580.7, 109 L 608.7, 109 Z"/><path stroke="black" fill="white" fill-opacity="0.0" d="M 646.7, 107 L 648.3, 107 L 648.3, 83 L 646.7, 83 L 646.7, 81 L 618.7, 81 L 618.7, 83 L 617.1, 83 L 617.1, 107 L 618.7, 107 L 618.7, 109 L 646.7, 109 Z"/><path stroke="black" fill="white" fill-opacity="0.0" d="M 684.7, 107 L 686.3, 107 L 686.3, 83 L 684.7, 83 L 684.7, 81 L 656.7, 81 L 656.7, 83 L 655.1, 83 L 655.1, 107 L 656.7, 107 L 656.7, 109 L 684.7, 109 Z"/><path stroke="black" fill="white" fill-opacity="0.0" d="M 42.5, 112.7 L 44.1, 112.7 L 44.1, 88.70000000000002 L 42.5, 88.70000000000002 L 42.5, 86.70000000000002 L 14.5, 86.70000000000002 L 14.5, 88.70000000000002 L 12.9, 88.70000000000002 L 12.9, 112.7 L 14.5, 112.7 L 14.5, 114.7 L 42.5, 114.7 Z"/><path stroke="black" fill="white" fill-opacity="0.0" d="M 90, 112.7 L 91.6, 112.7 L 91.6, 88.70000000000002 L 90, 88.70000000000002 L 90, 86.70000000000002 L 62, 86.70000000000002 L 62, 88.70000000000002 L 60.4, 88.70000000000002 L 60.4, 112.7 L 62, 112.7 L 62, 114.7 L 90, 114.7 Z"/><path stroke="black" fill="white" fill-opacity="0.0" d="M 128, 112.7 L 129.6, 112.7 L 129.6, 88.70000000000002 L 128, 88.70000000000002 L 128, 86.70000000000002 L 100, 86.70000000000002 L 100, 88.70000000000002 L 98.4, 88.70000000000002 L 98.4, 112.7 L 100, 112.7 L 100, 114.7 L 128, 114.7 Z"/><path stroke="black" fill="white" fill-opacity="0.0" d="M 166, 112.7 L 167.6, 112.7 L 167.6, 88.70000000000002 L 166, 88.70000000000002 L 166, 86.70000000000002 L 138, 86.70000000000002 L 138, 88.70000000000002 L 136.4, 88.70000000000002 L 136.4, 112.7 L 138, 112.7 L 138, 114.7 L 166, 114.7 Z"/><path stroke="black" fill="white" fill-opacity="0.0" d="M 204, 112.7 L 205.6, 112.7 L 205.6, 88.70000000000002 L 204, 88.70000000000002 L 204, 86.70000000000002 L 176, 86.70000000000002 L 176, 88.70000000000002 L 174.4, 88.70000000000002 L 174.4, 112.7 L 176, 112.7 L 176, 114.7 L 204, 114.7 Z"/><path stroke="black" fill="white" fill-opacity="0.0" d="M 242, 112.7 L 243.6, 112.7 L 243.6, 88.70000000000002 L 242, 88.70000000000002 L 242, 86.70000000000002 L 214, 86.70000000000002 L 214, 88.70000000000002 L 212.4, 88.70000000000002 L 212.4, 112.7 L 214, 112.7 L 214, 114.7 L 242, 114.7 Z"/><path stroke="black" fill="white" fill-opacity="0.0" d="M 280, 112.7 L 281.6, 112.7 L 281.6, 88.70000000000002 L 280, 88.70000000000002 L 280, 86.70000000000002 L 252, 86.70000000000002 L 252, 88.70000000000002 L 250.4, 88.70000000000002 L 250.4, 112.7 L 252, 112.7 L 252, 114.7 L 280, 114.7 Z"/><path stroke="black" fill="white" fill-opacity="0.0" d="M 318, 112.7 L 319.6, 112.7 L 319.6, 88.70000000000002 L 318, 88.70000000000002 L 318, 86.70000000000002 L 290, 86.70000000000002 L 290, 88.70000000000002 L 288.4, 88.70000000000002 L 288.4, 112.7 L 290, 112.7 L 290, 114.7 L 318, 114.7 Z"/><path stroke="black" fill="white" fill-opacity="0.0" d="M 356, 112.7 L 357.6, 112.7 L 357.6, 88.70000000000002 L 356, 88.70000000000002 L 356, 86.70000000000002 L 328, 86.70000000000002 L 328, 88.70000000000002 L 326.4, 88.70000000000002 L 326.4, 112.7 L 328, 112.7 L 328, 114.7 L 356, 114.7 Z"/><path stroke="black" fill="white" fill-opacity="0.0" d="M 394, 112.7 L 395.6, 112.7 L 395.6, 88.70000000000002 L 394, 88.70000000000002 L 394, 86.70000000000002 L 366, 86.70000000000002 L 366, 88.70000000000002 L 364.4, 88.70000000000002 L 364.4, 112.7 L 366, 112.7 L 366, 114.7 L 394, 114.7 Z"/><path stroke="black" fill="white" fill-opacity="0.0" d="M 432, 112.7 L 433.6, 112.7 L 433.6, 88.70000000000002 L 432, 88.70000000000002 L 432, 86.70000000000002 L 404, 86.70000000000002 L 404, 88.70000000000002 L 402.4, 88.70000000000002 L 402.4, 112.7 L 404, 112.7 L 404, 114.7 L 432, 114.7 Z"/><path stroke="black" fill="white" fill-opacity="0.0" d="M 470, 112.7 L 471.6, 112.7 L 471.6, 88.70000000000002 L 470, 88.70000000000002 L 470, 86.70000000000002 L 442, 86.70000000000002 L 442, 88.70000000000002 L 440.4, 88.70000000000002 L 440.4, 112.7 L 442, 112.7 L 442, 114.7 L 470, 114.7 Z"/><path stroke="black" fill="white" fill-opacity="0.0" d="M 508, 112.7 L 509.6, 112.7 L 509.6, 88.70000000000002 L 508, 88.70000000000002 L 508, 86.70000000000002 L 480, 86.70000000000002 L 480, 88.70000000000002 L 478.4, 88.70000000000002 L 478.4, 112.7 L 480, 112.7 L 480, 114.7 L 508, 114.7 Z"/><path stroke="black" fill="white" fill-opacity="0.0" d="M 555.5, 112.7 L 557.1, 112.7 L 557.1, 88.70000000000002 L 555.5, 88.70000000000002 L 555.5, 86.70000000000002 L 527.5, 86.70000000000002 L 527.5, 88.70000000000002 L 525.9, 88.70000000000002 L 525.9, 112.7 L 527.5, 112.7 L 527.5, 114.7 L 555.5, 114.7 Z"/><path stroke="black" fill="white" fill-opacity="0.0" d="M 593.2, 146.54 L 596.55, 146.54 L 596.55, 144.94 L 598.1, 144.94 L 598.1, 145 L 599.7, 145 L 599.7, 147 L 627.7, 147 L 627.7, 145 L 629.3, 145 L 629.3, 144.94 L 630.85, 144.94 L 630.85, 146.54 L 634.2, 146.54 L 634.2, 148.524 L 640.8, 148.524 L 640.8, 146.54 L 644.15, 146.54 L 644.15, 134 L 645.9, 134 L 645.9, 128.4 L 644.15, 128.4 L 644.15, 121.94 L 640.8, 121.94 L 640.8, 120.524 L 634.2, 120.524 L 634.2, 121.94 L 630.85, 121.94 L 630.85, 123.54 L 629.3, 123.54 L 629.3, 121 L 627.7, 121 L 627.7, 119 L 599.7, 119 L 599.7, 121 L 598.1, 121 L 598.1, 123.54 L 596.55, 123.54 L 596.55, 121.94 L 593.2, 121.94 L 593.2, 120.524 L 586.6, 120.524 L 586.6, 121.94 L 583.25, 121.94 L 583.25, 128.4 L 581.5, 128.4 L 581.5, 134 L 583.25, 134 L 583.25, 146.54 L 586.6, 146.54 L 586.6, 148.524 L 593.2, 148.524 Z"/><path stroke="black" fill="white" fill-opacity="0.0" d="M 684.7, 145 L 686.3, 145 L 686.3, 121 L 684.7, 121 L 684.7, 119 L 656.7, 119 L 656.7, 121 L 655.1, 121 L 655.1, 145 L 656.7, 145 L 656.7, 147 L 684.7, 147 Z"/><path stroke="black" fill="white" fill-opacity="0.0" d="M 47.25, 150.7 L 48.85, 150.7 L 48.85, 126.7 L 47.25, 126.7 L 47.25, 124.7 L 19.25, 124.7 L 19.25, 126.7 L 17.65, 126.7 L 17.65, 150.7 L 19.25, 150.7 L 19.25, 152.7 L 47.25, 152.7 Z"/><path stroke="black" fill="white" fill-opacity="0.0" d="M 99.5, 150.7 L 101.1, 150.7 L 101.1, 126.7 L 99.5, 126.7 L 99.5, 124.7 L 71.5, 124.7 L 71.5, 126.7 L 69.9, 126.7 L 69.9, 150.7 L 71.5, 150.7 L 71.5, 152.7 L 99.5, 152.7 Z"/><path stroke="black" fill="white" fill-opacity="0.0" d="M 137.5, 150.7 L 139.1, 150.7 L 139.1, 126.7 L 137.5, 126.7 L 137.5, 124.7 L 109.5, 124.7 L 109.5, 126.7 L 107.9, 126.7 L 107.9, 150.7 L 109.5, 150.7 L 109.5, 152.7 L 137.5, 152.7 Z"/><path stroke="black" fill="white" fill-opacity="0.0" d="M 175.5, 150.7 L 177.1, 150.7 L 177.1, 126.7 L 175.5, 126.7 L 175.5, 124.7 L 147.5, 124.7 L 147.5, 126.7 L 145.9, 126.7 L 145.9, 150.7 L 147.5, 150.7 L 147.5, 152.7 L 175.5, 152.7 Z"/><path stroke="black" fill="white" fill-opacity="0.0" d="M 213.5, 150.7 L 215.1, 150.7 L 215.1, 126.7 L 213.5, 126.7 L 213.5, 124.7 L 185.5, 124.7 L 185.5, 126.7 L 183.9, 126.7 L 183.9, 150.7 L 185.5, 150.7 L 185.5, 152.7 L 213.5, 152.7 Z"/><path stroke="black" fill="white" fill-opacity="0.0" d="M 251.5, 150.7 L 253.1, 150.7 L 253.1, 126.7 L 251.5, 126.7 L 251.5, 124.7 L 223.5, 124.7 L 223.5, 126.7 L 221.9, 126.7 L 221.9, 150.7 L 223.5, 150.7 L 223.5, 152.7 L 251.5, 152.7 Z"/><path stroke="black" fill="white" fill-opacity="0.0" d="M 289.5, 150.7 L 291.1, 150.7 L 291.1, 126.7 L 289.5, 126.7 L 289.5, 124.7 L 261.5, 124.7 L 261.5, 126.7 L 259.9, 126.7 L 259.9, 150.7 L 261.5, 150.7 L 261.5, 152.7 L 289.5, 152.7 Z"/><path stroke="black" fill="white" fill-opacity="0.0" d="M 327.5, 150.7 L 329.1, 150.7 L 329.1, 126.7 L 327.5, 126.7 L 327.5, 124.7 L 299.5, 124.7 L 299.5, 126.7 L 297.9, 126.7 L 297.9, 150.7 L 299.5, 150.7 L 299.5, 152.7 L 327.5, 152.7 Z"/><path stroke="black" fill="white" fill-opacity="0.0" d="M 365.5, 150.7 L 367.1, 150.7 L 367.1, 126.7 L 365.5, 126.7 L 365.5, 124.7 L 337.5, 124.7 L 337.5, 126.7 L 335.9, 126.7 L 335.9, 150.7 L 337.5, 150.7 L 337.5, 152.7 L 365.5, 152.7 Z"/><path stroke="black" fill="white" fill-opacity="0.0" d="M 403.5, 150.7 L 405.1, 150.7 L 405.1, 126.7 L 403.5, 126.7 L 403.5, 124.7 L 375.5, 124.7 L 375.5, 126.7 L 373.9, 126.7 L 373.9, 150.7 L 375.5, 150.7 L 375.5, 152.7 L 403.5, 152.7 Z"/><path stroke="black" fill="white" fill-opacity="0.0" d="M 441.5, 150.7 L 443.1, 150.7 L 443.1, 126.7 L 441.5, 126.7 L 441.5, 124.7 L 413.5, 124.7 L 413.5, 126.7 L 411.9, 126.7 L 411.9, 150.7 L 413.5, 150.7 L 413.5, 152.7 L 441.5, 152.7 Z"/><path stroke="black" fill="white" fill-opacity="0.0" d="M 479.5, 150.7 L 481.1, 150.7 L 481.1, 126.7 L 479.5, 126.7 L 479.5, 124.7 L 451.5, 124.7 L 451.5, 126.7 L 449.9, 126.7 L 449.9, 150.7 L 451.5, 150.7 L 451.5, 152.7 L 479.5, 152.7 Z"/><path stroke="black" fill="white" fill-opacity="0.0" d="M 506.75, 152.24 L 510.1, 152.24 L 510.1, 150.64 L 511.65, 150.64 L 511.65, 150.7 L 513.25, 150.7 L 513.25, 152.7 L 541.25, 152.7 L 541.25, 150.7 L 542.85, 150.7 L 542.85, 150.64 L 544.4, 150.64 L 544.4, 152.24 L 547.75, 152.24 L 547.75, 154.224 L 554.35, 154.224 L 554.35, 152.24 L 557.7, 152.24 L 557.7, 139.7 L 559.45, 139.7 L 559.45, 134.1 L 557.7, 134.1 L 557.7, 127.64 L 554.35, 127.64 L 554.35, 126.224 L 547.75, 126.224 L 547.75, 127.64 L 544.4, 127.64 L 544.4, 129.24 L 542.85, 129.24 L 542.85, 126.7 L 541.25, 126.7 L 541.25, 124.7 L 513.25, 124.7 L 513.25, 126.7 L 511.65, 126.7 L 511.65, 129.24 L 510.1, 129.24 L 510.1, 127.64 L 506.75, 127.64 L 506.75, 126.224 L 500.15, 126.224 L 500.15, 127.64 L 496.8, 127.64 L 496.8, 134.1 L 495.05, 134.1 L 495.05, 139.7 L 496.8, 139.7 L 496.8, 152.24 L 500.15, 152.24 L 500.15, 154.224 L 506.75, 154.224 Z"/><path stroke="black" fill="white" fill-opacity="0.0" d="M 22.25, 190.24 L 25.6, 190.24 L 25.6, 188.64 L 27.15, 188.64 L 27.15, 188.7 L 28.75, 188.7 L 28.75, 190.7 L 56.75, 190.7 L 56.75, 188.7 L 58.35, 188.7 L 58.35, 188.64 L 59.9, 188.64 L 59.9, 190.24 L 63.25, 190.24 L 63.25, 192.224 L 69.85, 192.224 L 69.85, 190.24 L 73.2, 190.24 L 73.2, 177.7 L 74.95, 177.7 L 74.95, 172.1 L 73.2, 172.1 L 73.2, 165.64 L 69.85, 165.64 L 69.85, 164.224 L 63.25, 164.224 L 63.25, 165.64 L 59.9, 165.64 L 59.9, 167.24 L 58.35, 167.24 L 58.35, 164.7 L 56.75, 164.7 L 56.75, 162.7 L 28.75, 162.7 L 28.75, 164.7 L 27.15, 164.7 L 27.15, 167.24 L 25.6, 167.24 L 25.6, 165.64 L 22.25, 165.64 L 22.25, 164.224 L 15.65, 164.224 L 15.65, 165.64 L 12.3, 165.64 L 12.3, 172.1 L 10.55, 172.1 L 10.55, 177.7 L 12.3, 177.7 L 12.3, 190.24 L 15.65, 190.24 L 15.65, 192.224 L 22.25, 192.224 Z"/><path stroke="black" fill="white" fill-opacity="0.0" d="M 118.5, 188.7 L 120.1, 188.7 L 120.1, 164.7 L 118.5, 164.7 L 118.5, 162.7 L 90.5, 162.7 L 90.5, 164.7 L 88.9, 164.7 L 88.9, 188.7 L 90.5, 188.7 L 90.5, 190.7 L 118.5, 190.7 Z"/><path stroke="black" fill="white" fill-opacity="0.0" d="M 156.5, 188.7 L 158.1, 188.7 L 158.1, 164.7 L 156.5, 164.7 L 156.5, 162.7 L 128.5, 162.7 L 128.5, 164.7 L 126.9, 164.7 L 126.9, 188.7 L 128.5, 188.7 L 128.5, 190.7 L 156.5, 190.7 Z"/><path stroke="black" fill="white" fill-opacity="0.0" d="M 194.5, 188.7 L 196.1, 188.7 L 196.1, 164.7 L 194.5, 164.7 L 194.5, 162.7 L 166.5, 162.7 L 166.5, 164.7 L 164.9, 164.7 L 164.9, 188.7 L 166.5, 188.7 L 166.5, 190.7 L 194.5, 190.7 Z"/><path stroke="black" fill="white" fill-opacity="0.0" d="M 232.5, 188.7 L 234.1, 188.7 L 234.1, 164.7 L 232.5, 164.7 L 232.5, 162.7 L 204.5, 162.7 L 204.5, 164.7 L 202.9, 164.7 L 202.9, 188.7 L 204.5, 188.7 L 204.5, 190.7 L 232.5, 190.7 Z"/><path stroke="black" fill="white" fill-opacity="0.0" d="M 270.5, 188.7 L 272.1, 188.7 L 272.1, 164.7 L 270.5, 164.7 L 270.5, 162.7 L 242.5, 162.7 L 242.5, 164.7 L 240.9, 164.7 L 240.9, 188.7 L 242.5, 188.7 L 242.5, 190.7 L 270.5, 190.7 Z"/><path stroke="black" fill="white" fill-opacity="0.0" d="M 308.5, 188.7 L 310.1, 188.7 L 310.1, 164.7 L 308.5, 164.7 L 308.5, 162.7 L 280.5, 162.7 L 280.5, 164.7 L 278.9, 164.7 L 278.9, 188.7 L 280.5, 188.7 L 280.5, 190.7 L 308.5, 190.7 Z"/><path stroke="black" fill="white" fill-opacity="0.0" d="M 346.5, 188.7 L 348.1, 188.7 L 348.1, 164.7 L 346.5, 164.7 L 346.5, 162.7 L 318.5, 162.7 L 318.5, 164.7 L 316.9, 164.7 L 316.9, 188.7 L 318.5, 188.7 L 318.5, 190.7 L 346.5, 190.7 Z"/><path stroke="black" fill="white" fill-opacity="0.0" d="M 384.5, 188.7 L 386.1, 188.7 L 386.1, 164.7 L 384.5, 164.7 L 384.5, 162.7 L 356.5, 162.7 L 356.5, 164.7 L 354.9, 164.7 L 354.9, 188.7 L 356.5, 188.7 L 356.5, 190.7 L 384.5, 190.7 Z"/><path stroke="black" fill="white" fill-opacity="0.0" d="M 422.5, 188.7 L 424.1, 188.7 L 424.1, 164.7 L 422.5, 164.7 L 422.5, 162.7 L 394.5, 162.7 L 394.5, 164.7 L 392.9, 164.7 L 392.9, 188.7 L 394.5, 188.7 L 394.5, 190.7 L 422.5, 190.7 Z"/><path stroke="black" fill="white" fill-opacity="0.0" d="M 460.5, 188.7 L 462.1, 188.7 L 462.1, 164.7 L 460.5, 164.7 L 460.5, 162.7 L 432.5, 162.7 L 432.5, 164.7 L 430.9, 164.7 L 430.9, 188.7 L 432.5, 188.7 L 432.5, 190.7 L 460.5, 190.7 Z"/><path stroke="black" fill="white" fill-opacity="0.0" d="M 497.25, 190.24 L 500.6, 190.24 L 500.6, 188.64 L 502.15, 188.64 L 502.15, 188.7 L 503.75, 188.7 L 503.75, 190.7 L 531.75, 190.7 L 531.75, 188.7 L 533.35, 188.7 L 533.35, 188.64 L 534.9, 188.64 L 534.9, 190.24 L 538.25, 190.24 L 538.25, 192.224 L 544.85, 192.224 L 544.85, 190.24 L 548.2, 190.24 L 548.2, 177.7 L 549.95, 177.7 L 549.95, 172.1 L 548.2, 172.1 L 548.2, 165.64 L 544.85, 165.64 L 544.85, 164.224 L 538.25, 164.224 L 538.25, 165.64 L 534.9, 165.64 L 534.9, 167.24 L 533.35, 167.24 L 533.35, 164.7 L 531.75, 164.7 L 531.75, 162.7 L 503.75, 162.7 L 503.75, 164.7 L 502.15, 164.7 L 502.15, 167.24 L 500.6, 167.24 L 500.6, 165.64 L 497.25, 165.64 L 497.25, 164.224 L 490.65, 164.224 L 490.65, 165.64 L 487.3, 165.64 L 487.3, 172.1 L 485.55, 172.1 L 485.55, 177.7 L 487.3, 177.7 L 487.3, 190.24 L 490.65, 190.24 L 490.65, 192.224 L 497.25, 192.224 Z"/><path stroke="black" fill="white" fill-opacity="0.0" d="M 646.7, 188.7 L 648.3, 188.7 L 648.3, 164.7 L 646.7, 164.7 L 646.7, 162.7 L 618.7, 162.7 L 618.7, 164.7 L 617.1, 164.7 L 617.1, 188.7 L 618.7, 188.7 L 618.7, 190.7 L 646.7, 190.7 Z"/><path stroke="black" fill="white" fill-opacity="0.0" d="M 42.5, 226.7 L 44.1, 226.7 L 44.1, 202.7 L 42.5, 202.7 L 42.5, 200.7 L 14.5, 200.7 L 14.5, 202.7 L 12.9, 202.7 L 12.9, 226.7 L 14.5, 226.7 L 14.5, 228.7 L 42.5, 228.7 Z"/><path stroke="black" fill="white" fill-opacity="0.0" d="M 94.75, 226.7 L 96.35, 226.7 L 96.35, 202.7 L 94.75, 202.7 L 94.75, 200.7 L 66.75, 200.7 L 66.75, 202.7 L 65.15, 202.7 L 65.15, 226.7 L 66.75, 226.7 L 66.75, 228.7 L 94.75, 228.7 Z"/><path stroke="black" fill="white" fill-opacity="0.0" d="M 142.25, 226.7 L 143.85, 226.7 L 143.85, 202.7 L 142.25, 202.7 L 142.25, 200.7 L 114.25, 200.7 L 114.25, 202.7 L 112.65, 202.7 L 112.65, 226.7 L 114.25, 226.7 L 114.25, 228.7 L 142.25, 228.7 Z"/><path stroke="black" fill="white" fill-opacity="0.0" d="M 174.05, 228.24 L 177.4, 228.24 L 177.4, 219.3 L 255.15, 219.3 L 255.15, 226.7 L 256.75, 226.7 L 256.75, 228.7 L 284.75, 228.7 L 284.75, 226.7 L 286.35, 226.7 L 286.35, 219.3 L 364.1, 219.3 L 364.1, 228.24 L 367.45, 228.24 L 367.45, 230.224 L 374.05, 230.224 L 374.05, 228.24 L 377.4, 228.24 L 377.4, 215.7 L 379.2, 215.7 L 379.2, 210.1 L 377.4, 210.1 L 377.4, 203.64 L 374.05, 203.64 L 374.05, 202.224 L 367.45, 202.224 L 367.45, 203.64 L 364.1, 203.64 L 364.1, 210.1 L 286.35, 210.1 L 286.35, 202.7 L 284.75, 202.7 L 284.75, 200.7 L 256.75, 200.7 L 256.75, 202.7 L 255.15, 202.7 L 255.15, 210.1 L 177.4, 210.1 L 177.4, 203.64 L 174.05, 203.64 L 174.05, 202.224 L 167.45, 202.224 L 167.45, 203.64 L 164.1, 203.64 L 164.1, 210.1 L 162.3, 210.1 L 162.3, 215.7 L 164.1, 215.7 L 164.1, 228.24 L 167.45, 228.24 L 167.45, 230.224 L 174.05, 230.224 Z"/><path stroke="black" fill="white" fill-opacity="0.0" d="M 427.25, 226.7 L 428.85, 226.7 L 428.85, 202.7 L 427.25, 202.7 L 427.25, 200.7 L 399.25, 200.7 L 399.25, 202.7 L 397.65, 202.7 L 397.65, 226.7 L 399.25, 226.7 L 399.25, 228.7 L 427.25, 228.7 Z"/><path stroke="black" fill="white" fill-opacity="0.0" d="M 474.75, 226.7 L 476.35, 226.7 L 476.35, 202.7 L 474.75, 202.7 L 474.75, 200.7 L 446.75, 200.7 L 446.75, 202.7 L 445.15, 202.7 L 445.15, 226.7 L 446.75, 226.7 L 446.75, 228.7 L 474.75, 228.7 Z"/><path stroke="black" fill="white" fill-opacity="0.0" d="M 517.5, 226.7 L 519.1, 226.7 L 519.1, 202.7 L 517.5, 202.7 L 517.5, 200.7 L 489.5, 200.7 L 489.5, 202.7 L 487.9, 202.7 L 487.9, 226.7 L 489.5, 226.7 L 489.5, 228.7 L 517.5, 228.7 Z"/><path stroke="black" fill="white" fill-opacity="0.0" d="M 560.25, 226.7 L 561.85, 226.7 L 561.85, 202.7 L 560.25, 202.7 L 560.25, 200.7 L 532.25, 200.7 L 532.25, 202.7 L 530.65, 202.7 L 530.65, 226.7 L 532.25, 226.7 L 532.25, 228.7 L 560.25, 228.7 Z"/><path stroke="black" fill="white" fill-opacity="0.0" d="M 608.7, 226.7 L 610.3, 226.7 L 610.3, 202.7 L 608.7, 202.7 L 608.7, 200.7 L 580.7, 200.7 L 580.7, 202.7 L 579.1, 202.7 L 579.1, 226.7 L 580.7, 226.7 L 580.7, 228.7 L 608.7, 228.7 Z"/><path stroke="black" fill="white" fill-opacity="0.0" d="M 646.7, 226.7 L 648.3, 226.7 L 648.3, 202.7 L 646.7, 202.7 L 646.7, 200.7 L 618.7, 200.7 L 618.7, 202.7 L 617.1, 202.7 L 617.1, 226.7 L 618.7, 226.7 L 618.7, 228.7 L 646.7, 228.7 Z"/><path stroke="black" fill="white" fill-opacity="0.0" d="M 684.7, 226.7 L 686.3, 226.7 L 686.3, 202.7 L 684.7, 202.7 L 684.7, 200.7 L 656.7, 200.7 L 656.7, 202.7 L 655.1, 202.7 L 655.1, 226.7 L 656.7, 226.7 L 656.7, 228.7 L 684.7, 228.7 Z"/></svg>