0
SECTION
2
HEADER
9
$INSUNITS
70
4
9
$INSBASE
10
0.0
20
0.0
30
0.0
9
$EXTMIN
10
0
20
0
9
$EXTMAX
10
344.84999999999997
20
116.85000000000001
0
ENDSEC
0
SECTION
2
TABLES
0
TABLE
2
LTYPE
70
1
0
LTYPE
2
CONTINUOUS
70
64
3
Solid line
72
65
73
0
40
0.0
0
ENDTAB
0
TABLE
2
LAYER
70
1
0
LAYER
2
Layer1
70
64
62
7
6
CONTINUOUS
0
ENDTAB
0
TABLE
2
STYLE
70
0
0
ENDTAB
0
TABLE
2
VIEW
70
0
0
ENDTAB
0
ENDSEC
0
SECTION
2
BLOCKS
0
ENDSEC
0
SECTION
2
ENTITIES
0
POLYLINE
5
63e
8
Layer1
66
1
10
0.0
20
0.0
30
0.0
70
1
0
VERTEX
5
63f
8
Layer1
10
0.0000
20
0.0000
30
0.0
0
VERTEX
5
640
8
Layer1
10
344.8500
20
0.0000
30
0.0
0
VERTEX
5
641
8
Layer1
10
344.8500
20
116.8500
30
0.0
0
VERTEX
5
642
8
Layer1
10
0.0000
20
116.8500
30
0.0
0
VERTEX
5
643
8
Layer1
10
0.0000
20
0.0000
30
0.0
0
SEQEND
5
644
8
Layer1
0
POLYLINE
5
645
8
Layer1
66
1
10
0.0
20
0.0
30
0.0
70
1
0
VERTEX
5
646
8
Layer1
10
16.5000
20
101.3500
30
0.0
0
VERTEX
5
647
8
Layer1
10
17.3000
20
101.3500
30
0.0
0
VERTEX
5
648
8
Layer1
10
17.3000
20
113.3500
30
0.0
0
VERTEX
5
649
8
Layer1
10
16.5000
20
113.3500
30
0.0
0
VERTEX
5
64a
8
Layer1
10
16.5000
20
114.3500
30
0.0
0
VERTEX
5
64b
8
Layer1
10
2.5000
20
114.3500
30
0.0
0
VERTEX
5
64c
8
Layer1
10
2.5000
20
113.3500
30
0.0
0
VERTEX
5
64d
8
Layer1
10
1.7000
20
113.3500
30
0.0
0
VERTEX
5
64e
8
Layer1
10
1.7000
20
101.3500
30
0.0
0
VERTEX
5
64f
8
Layer1
10
2.5000
20
101.3500
30
0.0
0
VERTEX
5
650
8
Layer1
10
2.5000
20
100.3500
30
0.0
0
VERTEX
5
651
8
Layer1
10
16.5000
20
100.3500
30
0.0
0
VERTEX
5
652
8
Layer1
10
16.5000
20
101.3500
30
0.0
0
SEQEND
5
653
8
Layer1
0
POLYLINE
5
654
8
Layer1
66
1
10
0.0
20
0.0
30
0.0
70
1
0
VERTEX
5
655
8
Layer1
10
45.0000
20
101.3500
30
0.0
0
VERTEX
5
656
8
Layer1
10
45.8000
20
101.3500
30
0.0
0
VERTEX
5
657
8
Layer1
10
45.8000
20
113.3500
30
0.0
0
VERTEX
5
658
8
Layer1
10
45.0000
20
113.3500
30
0.0
0
VERTEX
5
659
8
Layer1
10
45.0000
20
114.3500
30
0.0
0
VERTEX
5
65a
8
Layer1
10
31.0000
20
114.3500
30
0.0
0
VERTEX
5
65b
8
Layer1
10
31.0000
20
113.3500
30
0.0
0
VERTEX
5
65c
8
Layer1
10
30.2000
20
113.3500
30
0.0
0
VERTEX
5
65d
8
Layer1
10
30.2000
20
101.3500
30
0.0
0
VERTEX
5
65e
8
Layer1
10
31.0000
20
101.3500
30
0.0
0
VERTEX
5
65f
8
Layer1
10
31.0000
20
100.3500
30
0.0
0
VERTEX
5
660
8
Layer1
10
45.0000
20
100.3500
30
0.0
0
VERTEX
5
661
8
Layer1
10
45.0000
20
101.3500
30
0.0
0
SEQEND
5
662
8
Layer1
0
POLYLINE
5
663
8
Layer1
66
1
10
0.0
20
0.0
30
0.0
70
1
0
VERTEX
5
664
8
Layer1
10
64.0000
20
101.3500
30
0.0
0
VERTEX
5
665
8
Layer1
10
64.8000
20
101.3500
30
0.0
0
VERTEX
5
666
8
Layer1
10
64.8000
20
113.3500
30
0.0
0
VERTEX
5
667
8
Layer1
10
64.0000
20
113.3500
30
0.0
0
VERTEX
5
668
8
Layer1
10
64.0000
20
114.3500
30
0.0
0
VERTEX
5
669
8
Layer1
10
50.0000
20
114.3500
30
0.0
0
VERTEX
5
66a
8
Layer1
10
50.0000
20
113.3500
30
0.0
0
VERTEX
5
66b
8
Layer1
10
49.2000
20
113.3500
30
0.0
0
VERTEX
5
66c
8
Layer1
10
49.2000
20
101.3500
30
0.0
0
VERTEX
5
66d
8
Layer1
10
50.0000
20
101.3500
30
0.0
0
VERTEX
5
66e
8
Layer1
10
50.0000
20
100.3500
30
0.0
0
VERTEX
5
66f
8
Layer1
10
64.0000
20
100.3500
30
0.0
0
VERTEX
5
670
8
Layer1
10
64.0000
20
101.3500
30
0.0
0
SEQEND
5
671
8
Layer1
0
POLYLINE
5
672
8
Layer1
66
1
10
0.0
20
0.0
30
0.0
70
1
0
VERTEX
5
673
8
Layer1
10
83.0000
20
101.3500
30
0.0
0
VERTEX
5
674
8
Layer1
10
83.8000
20
101.3500
30
0.0
0
VERTEX
5
675
8
Layer1
10
83.8000
20
113.3500
30
0.0
0
VERTEX
5
676
8
Layer1
10
83.0000
20
113.3500
30
0.0
0
VERTEX
5
677
8
Layer1
10
83.0000
20
114.3500
30
0.0
0
VERTEX
5
678
8
Layer1
10
69.0000
20
114.3500
30
0.0
0
VERTEX
5
679
8
Layer1
10
69.0000
20
113.3500
30
0.0
0
VERTEX
5
67a
8
Layer1
10
68.2000
20
113.3500
30
0.0
0
VERTEX
5
67b
8
Layer1
10
68.2000
20
101.3500
30
0.0
0
VERTEX
5
67c
8
Layer1
10
69.0000
20
101.3500
30
0.0
0
VERTEX
5
67d
8
Layer1
10
69.0000
20
100.3500
30
0.0
0
VERTEX
5
67e
8
Layer1
10
83.0000
20
100.3500
30
0.0
0
VERTEX
5
67f
8
Layer1
10
83.0000
20
101.3500
30
0.0
0
SEQEND
5
680
8
Layer1
0
POLYLINE
5
681
8
Layer1
66
1
10
0.0
20
0.0
30
0.0
70
1
0
VERTEX
5
682
8
Layer1
10
102.0000
20
101.3500
30
0.0
0
VERTEX
5
683
8
Layer1
10
102.8000
20
101.3500
30
0.0
0
VERTEX
5
684
8
Layer1
10
102.8000
20
113.3500
30
0.0
0
VERTEX
5
685
8
Layer1
10
102.0000
20
113.3500
30
0.0
0
VERTEX
5
686
8
Layer1
10
102.0000
20
114.3500
30
0.0
0
VERTEX
5
687
8
Layer1
10
88.0000
20
114.3500
30
0.0
0
VERTEX
5
688
8
Layer1
10
88.0000
20
113.3500
30
0.0
0
VERTEX
5
689
8
Layer1
10
87.2000
20
113.3500
30
0.0
0
VERTEX
5
68a
8
Layer1
10
87.2000
20
101.3500
30
0.0
0
VERTEX
5
68b
8
Layer1
10
88.0000
20
101.3500
30
0.0
0
VERTEX
5
68c
8
Layer1
10
88.0000
20
100.3500
30
0.0
0
VERTEX
5
68d
8
Layer1
10
102.0000
20
100.3500
30
0.0
0
VERTEX
5
68e
8
Layer1
10
102.0000
20
101.3500
30
0.0
0
SEQEND
5
68f
8
Layer1
0
POLYLINE
5
690
8
Layer1
66
1
10
0.0
20
0.0
30
0.0
70
1
0
VERTEX
5
691
8
Layer1
10
121.0000
20
101.3500
30
0.0
0
VERTEX
5
692
8
Layer1
10
121.8000
20
101.3500
30
0.0
0
VERTEX
5
693
8
Layer1
10
121.8000
20
113.3500
30
0.0
0
VERTEX
5
694
8
Layer1
10
121.0000
20
113.3500
30
0.0
0
VERTEX
5
695
8
Layer1
10
121.0000
20
114.3500
30
0.0
0
VERTEX
5
696
8
Layer1
10
107.0000
20
114.3500
30
0.0
0
VERTEX
5
697
8
Layer1
10
107.0000
20
113.3500
30
0.0
0
VERTEX
5
698
8
Layer1
10
106.2000
20
113.3500
30
0.0
0
VERTEX
5
699
8
Layer1
10
106.2000
20
101.3500
30
0.0
0
VERTEX
5
69a
8
Layer1
10
107.0000
20
101.3500
30
0.0
0
VERTEX
5
69b
8
Layer1
10
107.0000
20
100.3500
30
0.0
0
VERTEX
5
69c
8
Layer1
10
121.0000
20
100.3500
30
0.0
0
VERTEX
5
69d
8
Layer1
10
121.0000
20
101.3500
30
0.0
0
SEQEND
5
69e
8
Layer1
0
POLYLINE
5
69f
8
Layer1
66
1
10
0.0
20
0.0
30
0.0
70
1
0
VERTEX
5
6a0
8
Layer1
10
140.0000
20
101.3500
30
0.0
0
VERTEX
5
6a1
8
Layer1
10
140.8000
20
101.3500
30
0.0
0
VERTEX
5
6a2
8
Layer1
10
140.8000
20
113.3500
30
0.0
0
VERTEX
5
6a3
8
Layer1
10
140.0000
20
113.3500
30
0.0
0
VERTEX
5
6a4
8
Layer1
10
140.0000
20
114.3500
30
0.0
0
VERTEX
5
6a5
8
Layer1
10
126.0000
20
114.3500
30
0.0
0
VERTEX
5
6a6
8
Layer1
10
126.0000
20
113.3500
30
0.0
0
VERTEX
5
6a7
8
Layer1
10
125.2000
20
113.3500
30
0.0
0
VERTEX
5
6a8
8
Layer1
10
125.2000
20
101.3500
30
0.0
0
VERTEX
5
6a9
8
Layer1
10
126.0000
20
101.3500
30
0.0
0
VERTEX
5
6aa
8
Layer1
10
126.0000
20
100.3500
30
0.0
0
VERTEX
5
6ab
8
Layer1
10
140.0000
20
100.3500
30
0.0
0
VERTEX
5
6ac
8
Layer1
10
140.0000
20
101.3500
30
0.0
0
SEQEND
5
6ad
8
Layer1
0
POLYLINE
5
6ae
8
Layer1
66
1
10
0.0
20
0.0
30
0.0
70
1
0
VERTEX
5
6af
8
Layer1
10
159.0000
20
101.3500
30
0.0
0
VERTEX
5
6b0
8
Layer1
10
159.8000
20
101.3500
30
0.0
0
VERTEX
5
6b1
8
Layer1
10
159.8000
20
113.3500
30
0.0
0
VERTEX
5
6b2
8
Layer1
10
159.0000
20
113.3500
30
0.0
0
VERTEX
5
6b3
8
Layer1
10
159.0000
20
114.3500
30
0.0
0
VERTEX
5
6b4
8
Layer1
10
145.0000
20
114.3500
30
0.0
0
VERTEX
5
6b5
8
Layer1
10
145.0000
20
113.3500
30
0.0
0
VERTEX
5
6b6
8
Layer1
10
144.2000
20
113.3500
30
0.0
0
VERTEX
5
6b7
8
Layer1
10
144.2000
20
101.3500
30
0.0
0
VERTEX
5
6b8
8
Layer1
10
145.0000
20
101.3500
30
0.0
0
VERTEX
5
6b9
8
Layer1
10
145.0000
20
100.3500
30
0.0
0
VERTEX
5
6ba
8
Layer1
10
159.0000
20
100.3500
30
0.0
0
VERTEX
5
6bb
8
Layer1
10
159.0000
20
101.3500
30
0.0
0
SEQEND
5
6bc
8
Layer1
0
POLYLINE
5
6bd
8
Layer1
66
1
10
0.0
20
0.0
30
0.0
70
1
0
VERTEX
5
6be
8
Layer1
10
178.0000
20
101.3500
30
0.0
0
VERTEX
5
6bf
8
Layer1
10
178.8000
20
101.3500
30
0.0
0
VERTEX
5
6c0
8
Layer1
10
178.8000
20
113.3500
30
0.0
0
VERTEX
5
6c1
8
Layer1
10
178.0000
20
113.3500
30
0.0
0
VERTEX
5
6c2
8
Layer1
10
178.0000
20
114.3500
30
0.0
0
VERTEX
5
6c3
8
Layer1
10
164.0000
20
114.3500
30
0.0
0
VERTEX
5
6c4
8
Layer1
10
164.0000
20
113.3500
30
0.0
0
VERTEX
5
6c5
8
Layer1
10
163.2000
20
113.3500
30
0.0
0
VERTEX
5
6c6
8
Layer1
10
163.2000
20
101.3500
30
0.0
0
VERTEX
5
6c7
8
Layer1
10
164.0000
20
101.3500
30
0.0
0
VERTEX
5
6c8
8
Layer1
10
164.0000
20
100.3500
30
0.0
0
VERTEX
5
6c9
8
Layer1
10
178.0000
20
100.3500
30
0.0
0
VERTEX
5
6ca
8
Layer1
10
178.0000
20
101.3500
30
0.0
0
SEQEND
5
6cb
8
Layer1
0
POLYLINE
5
6cc
8
Layer1
66
1
10
0.0
20
0.0
30
0.0
70
1
0
VERTEX
5
6cd
8
Layer1
10
197.0000
20
101.3500
30
0.0
0
VERTEX
5
6ce
8
Layer1
10
197.8000
20
101.3500
30
0.0
0
VERTEX
5
6cf
8
Layer1
10
197.8000
20
113.3500
30
0.0
0
VERTEX
5
6d0
8
Layer1
10
197.0000
20
113.3500
30
0.0
0
VERTEX
5
6d1
8
Layer1
10
197.0000
20
114.3500
30
0.0
0
VERTEX
5
6d2
8
Layer1
10
183.0000
20
114.3500
30
0.0
0
VERTEX
5
6d3
8
Layer1
10
183.0000
20
113.3500
30
0.0
0
VERTEX
5
6d4
8
Layer1
10
182.2000
20
113.3500
30
0.0
0
VERTEX
5
6d5
8
Layer1
10
182.2000
20
101.3500
30
0.0
0
VERTEX
5
6d6
8
Layer1
10
183.0000
20
101.3500
30
0.0
0
VERTEX
5
6d7
8
Layer1
10
183.0000
20
100.3500
30
0.0
0
VERTEX
5
6d8
8
Layer1
10
197.0000
20
100.3500
30
0.0
0
VERTEX
5
6d9
8
Layer1
10
197.0000
20
101.3500
30
0.0
0
SEQEND
5
6da
8
Layer1
0
POLYLINE
5
6db
8
Layer1
66
1
10
0.0
20
0.0
30
0.0
70
1
0
VERTEX
5
6dc
8
Layer1
10
216.0000
20
101.3500
30
0.0
0
VERTEX
5
6dd
8
Layer1
10
216.8000
20
101.3500
30
0.0
0
VERTEX
5
6de
8
Layer1
10
216.8000
20
113.3500
30
0.0
0
VERTEX
5
6df
8
Layer1
10
216.0000
20
113.3500
30
0.0
0
VERTEX
5
6e0
8
Layer1
10
216.0000
20
114.3500
30
0.0
0
VERTEX
5
6e1
8
Layer1
10
202.0000
20
114.3500
30
0.0
0
VERTEX
5
6e2
8
Layer1
10
202.0000
20
113.3500
30
0.0
0
VERTEX
5
6e3
8
Layer1
10
201.2000
20
113.3500
30
0.0
0
VERTEX
5
6e4
8
Layer1
10
201.2000
20
101.3500
30
0.0
0
VERTEX
5
6e5
8
Layer1
10
202.0000
20
101.3500
30
0.0
0
VERTEX
5
6e6
8
Layer1
10
202.0000
20
100.3500
30
0.0
0
VERTEX
5
6e7
8
Layer1
10
216.0000
20
100.3500
30
0.0
0
VERTEX
5
6e8
8
Layer1
10
216.0000
20
101.3500
30
0.0
0
SEQEND
5
6e9
8
Layer1
0
POLYLINE
5
6ea
8
Layer1
66
1
10
0.0
20
0.0
30
0.0
70
1
0
VERTEX
5
6eb
8
Layer1
10
235.0000
20
101.3500
30
0.0
0
VERTEX
5
6ec
8
Layer1
10
235.8000
20
101.3500
30
0.0
0
VERTEX
5
6ed
8
Layer1
10
235.8000
20
113.3500
30
0.0
0
VERTEX
5
6ee
8
Layer1
10
235.0000
20
113.3500
30
0.0
0
VERTEX
5
6ef
8
Layer1
10
235.0000
20
114.3500
30
0.0
0
VERTEX
5
6f0
8
Layer1
10
221.0000
20
114.3500
30
0.0
0
VERTEX
5
6f1
8
Layer1
10
221.0000
20
113.3500
30
0.0
0
VERTEX
5
6f2
8
Layer1
10
220.2000
20
113.3500
30
0.0
0
VERTEX
5
6f3
8
Layer1
10
220.2000
20
101.3500
30
0.0
0
VERTEX
5
6f4
8
Layer1
10
221.0000
20
101.3500
30
0.0
0
VERTEX
5
6f5
8
Layer1
10
221.0000
20
100.3500
30
0.0
0
VERTEX
5
6f6
8
Layer1
10
235.0000
20
100.3500
30
0.0
0
VERTEX
5
6f7
8
Layer1
10
235.0000
20
101.3500
30
0.0
0
SEQEND
5
6f8
8
Layer1
0
POLYLINE
5
6f9
8
Layer1
66
1
10
0.0
20
0.0
30
0.0
70
1
0
VERTEX
5
6fa
8
Layer1
10
254.0000
20
101.3500
30
0.0
0
VERTEX
5
6fb
8
Layer1
10
254.8000
20
101.3500
30
0.0
0
VERTEX
5
6fc
8
Layer1
10
254.8000
20
113.3500
30
0.0
0
VERTEX
5
6fd
8
Layer1
10
254.0000
20
113.3500
30
0.0
0
VERTEX
5
6fe
8
Layer1
10
254.0000
20
114.3500
30
0.0
0
VERTEX
5
6ff
8
Layer1
10
240.0000
20
114.3500
30
0.0
0
VERTEX
5
700
8
Layer1
10
240.0000
20
113.3500
30
0.0
0
VERTEX
5
701
8
Layer1
10
239.2000
20
113.3500
30
0.0
0
VERTEX
5
702
8
Layer1
10
239.2000
20
101.3500
30
0.0
0
VERTEX
5
703
8
Layer1
10
240.0000
20
101.3500
30
0.0
0
VERTEX
5
704
8
Layer1
10
240.0000
20
100.3500
30
0.0
0
VERTEX
5
705
8
Layer1
10
254.0000
20
100.3500
30
0.0
0
VERTEX
5
706
8
Layer1
10
254.0000
20
101.3500
30
0.0
0
SEQEND
5
707
8
Layer1
0
POLYLINE
5
708
8
Layer1
66
1
10
0.0
20
0.0
30
0.0
70
1
0
VERTEX
5
709
8
Layer1
10
282.5000
20
101.3500
30
0.0
0
VERTEX
5
70a
8
Layer1
10
283.3000
20
101.3500
30
0.0
0
VERTEX
5
70b
8
Layer1
10
283.3000
20
113.3500
30
0.0
0
VERTEX
5
70c
8
Layer1
10
282.5000
20
113.3500
30
0.0
0
VERTEX
5
70d
8
Layer1
10
282.5000
20
114.3500
30
0.0
0
VERTEX
5
70e
8
Layer1
10
268.5000
20
114.3500
30
0.0
0
VERTEX
5
70f
8
Layer1
10
268.5000
20
113.3500
30
0.0
0
VERTEX
5
710
8
Layer1
10
267.7000
20
113.3500
30
0.0
0
VERTEX
5
711
8
Layer1
10
267.7000
20
101.3500
30
0.0
0
VERTEX
5
712
8
Layer1
10
268.5000
20
101.3500
30
0.0
0
VERTEX
5
713
8
Layer1
10
268.5000
20
100.3500
30
0.0
0
VERTEX
5
714
8
Layer1
10
282.5000
20
100.3500
30
0.0
0
VERTEX
5
715
8
Layer1
10
282.5000
20
101.3500
30
0.0
0
SEQEND
5
716
8
Layer1
0
POLYLINE
5
717
8
Layer1
66
1
10
0.0
20
0.0
30
0.0
70
1
0
VERTEX
5
718
8
Layer1
10
304.3500
20
101.3500
30
0.0
0
VERTEX
5
719
8
Layer1
10
305.1500
20
101.3500
30
0.0
0
VERTEX
5
71a
8
Layer1
10
305.1500
20
113.3500
30
0.0
0
VERTEX
5
71b
8
Layer1
10
304.3500
20
113.3500
30
0.0
0
VERTEX
5
71c
8
Layer1
10
304.3500
20
114.3500
30
0.0
0
VERTEX
5
71d
8
Layer1
10
290.3500
20
114.3500
30
0.0
0
VERTEX
5
71e
8
Layer1
10
290.3500
20
113.3500
30
0.0
0
VERTEX
5
71f
8
Layer1
10
289.5500
20
113.3500
30
0.0
0
VERTEX
5
720
8
Layer1
10
289.5500
20
101.3500
30
0.0
0
VERTEX
5
721
8
Layer1
10
290.3500
20
101.3500
30
0.0
0
VERTEX
5
722
8
Layer1
10
290.3500
20
100.3500
30
0.0
0
VERTEX
5
723
8
Layer1
10
304.3500
20
100.3500
30
0.0
0
VERTEX
5
724
8
Layer1
10
304.3500
20
101.3500
30
0.0
0
SEQEND
5
725
8
Layer1
0
POLYLINE
5
726
8
Layer1
66
1
10
0.0
20
0.0
30
0.0
70
1
0
VERTEX
5
727
8
Layer1
10
323.3500
20
101.3500
30
0.0
0
VERTEX
5
728
8
Layer1
10
324.1500
20
101.3500
30
0.0
0
VERTEX
5
729
8
Layer1
10
324.1500
20
113.3500
30
0.0
0
VERTEX
5
72a
8
Layer1
10
323.3500
20
113.3500
30
0.0
0
VERTEX
5
72b
8
Layer1
10
323.3500
20
114.3500
30
0.0
0
VERTEX
5
72c
8
Layer1
10
309.3500
20
114.3500
30
0.0
0
VERTEX
5
72d
8
Layer1
10
309.3500
20
113.3500
30
0.0
0
VERTEX
5
72e
8
Layer1
10
308.5500
20
113.3500
30
0.0
0
VERTEX
5
72f
8
Layer1
10
308.5500
20
101.3500
30
0.0
0
VERTEX
5
730
8
Layer1
10
309.3500
20
101.3500
30
0.0
0
VERTEX
5
731
8
Layer1
10
309.3500
20
100.3500
30
0.0
0
VERTEX
5
732
8
Layer1
10
323.3500
20
100.3500
30
0.0
0
VERTEX
5
733
8
Layer1
10
323.3500
20
101.3500
30
0.0
0
SEQEND
5
734
8
Layer1
0
POLYLINE
5
735
8
Layer1
66
1
10
0.0
20
0.0
30
0.0
70
1
0
VERTEX
5
736
8
Layer1
10
342.3500
20
101.3500
30
0.0
0
VERTEX
5
737
8
Layer1
10
343.1500
20
101.3500
30
0.0
0
VERTEX
5
738
8
Layer1
10
343.1500
20
113.3500
30
0.0
0
VERTEX
5
739
8
Layer1
10
342.3500
20
113.3500
30
0.0
0
VERTEX
5
73a
8
Layer1
10
342.3500
20
114.3500
30
0.0
0
VERTEX
5
73b
8
Layer1
10
328.3500
20
114.3500
30
0.0
0
VERTEX
5
73c
8
Layer1
10
328.3500
20
113.3500
30
0.0
0
VERTEX
5
73d
8
Layer1
10
327.5500
20
113.3500
30
0.0
0
VERTEX
5
73e
8
Layer1
10
327.5500
20
101.3500
30
0.0
0
VERTEX
5
73f
8
Layer1
10
328.3500
20
101.3500
30
0.0
0
VERTEX
5
740
8
Layer1
10
328.3500
20
100.3500
30
0.0
0
VERTEX
5
741
8
Layer1
10
342.3500
20
100.3500
30
0.0
0
VERTEX
5
742
8
Layer1
10
342.3500
20
101.3500
30
0.0
0
SEQEND
5
743
8
Layer1
0
POLYLINE
5
744
8
Layer1
66
1
10
0.0
20
0.0
30
0.0
70
1
0
VERTEX
5
745
8
Layer1
10
304.3500
20
82.3500
30
0.0
0
VERTEX
5
746
8
Layer1
10
305.1500
20
82.3500
30
0.0
0
VERTEX
5
747
8
Layer1
10
305.1500
20
94.3500
30
0.0
0
VERTEX
5
748
8
Layer1
10
304.3500
20
94.3500
30
0.0
0
VERTEX
5
749
8
Layer1
10
304.3500
20
95.3500
30
0.0
0
VERTEX
5
74a
8
Layer1
10
290.3500
20
95.3500
30
0.0
0
VERTEX
5
74b
8
Layer1
10
290.3500
20
94.3500
30
0.0
0
VERTEX
5
74c
8
Layer1
10
289.5500
20
94.3500
30
0.0
0
VERTEX
5
74d
8
Layer1
10
289.5500
20
82.3500
30
0.0
0
VERTEX
5
74e
8
Layer1
10
290.3500
20
82.3500
30
0.0
0
VERTEX
5
74f
8
Layer1
10
290.3500
20
81.3500
30
0.0
0
VERTEX
5
750
8
Layer1
10
304.3500
20
81.3500
30
0.0
0
VERTEX
5
751
8
Layer1
10
304.3500
20
82.3500
30
0.0
0
SEQEND
5
752
8
Layer1
0
POLYLINE
5
753
8
Layer1
66
1
10
0.0
20
0.0
30
0.0
70
1
0
VERTEX
5
754
8
Layer1
10
323.3500
20
82.3500
30
0.0
0
VERTEX
5
755
8
Layer1
10
324.1500
20
82.3500
30
0.0
0
VERTEX
5
756
8
Layer1
10
324.1500
20
94.3500
30
0.0
0
VERTEX
5
757
8
Layer1
10
323.3500
20
94.3500
30
0.0
0
VERTEX
5
758
8
Layer1
10
323.3500
20
95.3500
30
0.0
0
VERTEX
5
759
8
Layer1
10
309.3500
20
95.3500
30
0.0
0
VERTEX
5
75a
8
Layer1
10
309.3500
20
94.3500
30
0.0
0
VERTEX
5
75b
8
Layer1
10
308.5500
20
94.3500
30
0.0
0
VERTEX
5
75c
8
Layer1
10
308.5500
20
82.3500
30
0.0
0
VERTEX
5
75d
8
Layer1
10
309.3500
20
82.3500
30
0.0
0
VERTEX
5
75e
8
Layer1
10
309.3500
20
81.3500
30
0.0
0
VERTEX
5
75f
8
Layer1
10
323.3500
20
81.3500
30
0.0
0
VERTEX
5
760
8
Layer1
10
323.3500
20
82.3500
30
0.0
0
SEQEND
5
761
8
Layer1
0
POLYLINE
5
762
8
Layer1
66
1
10
0.0
20
0.0
30
0.0
70
1
0
VERTEX
5
763
8
Layer1
10
342.3500
20
82.3500
30
0.0
0
VERTEX
5
764
8
Layer1
10
343.1500
20
82.3500
30
0.0
0
VERTEX
5
765
8
Layer1
10
343.1500
20
94.3500
30
0.0
0
VERTEX
5
766
8
Layer1
10
342.3500
20
94.3500
30
0.0
0
VERTEX
5
767
8
Layer1
10
342.3500
20
95.3500
30
0.0
0
VERTEX
5
768
8
Layer1
10
328.3500
20
95.3500
30
0.0
0
VERTEX
5
769
8
Layer1
10
328.3500
20
94.3500
30
0.0
0
VERTEX
5
76a
8
Layer1
10
327.5500
20
94.3500
30
0.0
0
VERTEX
5
76b
8
Layer1
10
327.5500
20
82.3500
30
0.0
0
VERTEX
5
76c
8
Layer1
10
328.3500
20
82.3500
30
0.0
0
VERTEX
5
76d
8
Layer1
10
328.3500
20
81.3500
30
0.0
0
VERTEX
5
76e
8
Layer1
10
342.3500
20
81.3500
30
0.0
0
VERTEX
5
76f
8
Layer1
10
342.3500
20
82.3500
30
0.0
0
SEQEND
5
770
8
Layer1
0
POLYLINE
5
771
8
Layer1
66
1
10
0.0
20
0.0
30
0.0
70
1
0
VERTEX
5
772
8
Layer1
10
16.5000
20
79.5000
30
0.0
0
VERTEX
5
773
8
Layer1
10
17.3000
20
79.5000
30
0.0
0
VERTEX
5
774
8
Layer1
10
17.3000
20
91.5000
30
0.0
0
VERTEX
5
775
8
Layer1
10
16.5000
20
91.5000
30
0.0
0
VERTEX
5
776
8
Layer1
10
16.5000
20
92.5000
30
0.0
0
VERTEX
5
777
8
Layer1
10
2.5000
20
92.5000
30
0.0
0
VERTEX
5
778
8
Layer1
10
2.5000
20
91.5000
30
0.0
0
VERTEX
5
779
8
Layer1
10
1.7000
20
91.5000
30
0.0
0
VERTEX
5
77a
8
Layer1
10
1.7000
20
79.5000
30
0.0
0
VERTEX
5
77b
8
Layer1
10
2.5000
20
79.5000
30
0.0
0
VERTEX
5
77c
8
Layer1
10
2.5000
20
78.5000
30
0.0
0
VERTEX
5
77d
8
Layer1
10
16.5000
20
78.5000
30
0.0
0
VERTEX
5
77e
8
Layer1
10
16.5000
20
79.5000
30
0.0
0
SEQEND
5
77f
8
Layer1
0
POLYLINE
5
780
8
Layer1
66
1
10
0.0
20
0.0
30
0.0
70
1
0
VERTEX
5
781
8
Layer1
10
35.5000
20
79.5000
30
0.0
0
VERTEX
5
782
8
Layer1
10
36.3000
20
79.5000
30
0.0
0
VERTEX
5
783
8
Layer1
10
36.3000
20
91.5000
30
0.0
0
VERTEX
5
784
8
Layer1
10
35.5000
20
91.5000
30
0.0
0
VERTEX
5
785
8
Layer1
10
35.5000
20
92.5000
30
0.0
0
VERTEX
5
786
8
Layer1
10
21.5000
20
92.5000
30
0.0
0
VERTEX
5
787
8
Layer1
10
21.5000
20
91.5000
30
0.0
0
VERTEX
5
788
8
Layer1
10
20.7000
20
91.5000
30
0.0
0
VERTEX
5
789
8
Layer1
10
20.7000
20
79.5000
30
0.0
0
VERTEX
5
78a
8
Layer1
10
21.5000
20
79.5000
30
0.0
0
VERTEX
5
78b
8
Layer1
10
21.5000
20
78.5000
30
0.0
0
VERTEX
5
78c
8
Layer1
10
35.5000
20
78.5000
30
0.0
0
VERTEX
5
78d
8
Layer1
10
35.5000
20
79.5000
30
0.0
0
SEQEND
5
78e
8
Layer1
0
POLYLINE
5
78f
8
Layer1
66
1
10
0.0
20
0.0
30
0.0
70
1
0
VERTEX
5
790
8
Layer1
10
54.5000
20
79.5000
30
0.0
0
VERTEX
5
791
8
Layer1
10
55.3000
20
79.5000
30
0.0
0
VERTEX
5
792
8
Layer1
10
55.3000
20
91.5000
30
0.0
0
VERTEX
5
793
8
Layer1
10
54.5000
20
91.5000
30
0.0
0
VERTEX
5
794
8
Layer1
10
54.5000
20
92.5000
30
0.0
0
VERTEX
5
795
8
Layer1
10
40.5000
20
92.5000
30
0.0
0
VERTEX
5
796
8
Layer1
10
40.5000
20
91.5000
30
0.0
0
VERTEX
5
797
8
Layer1
10
39.7000
20
91.5000
30
0.0
0
VERTEX
5
798
8
Layer1
10
39.7000
20
79.5000
30
0.0
0
VERTEX
5
799
8
Layer1
10
40.5000
20
79.5000
30
0.0
0
VERTEX
5
79a
8
Layer1
10
40.5000
20
78.5000
30
0.0
0
VERTEX
5
79b
8
Layer1
10
54.5000
20
78.5000
30
0.0
0
VERTEX
5
79c
8
Layer1
10
54.5000
20
79.5000
30
0.0
0
SEQEND
5
79d
8
Layer1
0
POLYLINE
5
79e
8
Layer1
66
1
10
0.0
20
0.0
30
0.0
70
1
0
VERTEX
5
79f
8
Layer1
10
73.5000
20
79.5000
30
0.0
0
VERTEX
5
7a0
8
Layer1
10
74.3000
20
79.5000
30
0.0
0
VERTEX
5
7a1
8
Layer1
10
74.3000
20
91.5000
30
0.0
0
VERTEX
5
7a2
8
Layer1
10
73.5000
20
91.5000
30
0.0
0
VERTEX
5
7a3
8
Layer1
10
73.5000
20
92.5000
30
0.0
0
VERTEX
5
7a4
8
Layer1
10
59.5000
20
92.5000
30
0.0
0
VERTEX
5
7a5
8
Layer1
10
59.5000
20
91.5000
30
0.0
0
VERTEX
5
7a6
8
Layer1
10
58.7000
20
91.5000
30
0.0
0
VERTEX
5
7a7
8
Layer1
10
58.7000
20
79.5000
30
0.0
0
VERTEX
5
7a8
8
Layer1
10
59.5000
20
79.5000
30
0.0
0
VERTEX
5
7a9
8
Layer1
10
59.5000
20
78.5000
30
0.0
0
VERTEX
5
7aa
8
Layer1
10
73.5000
20
78.5000
30
0.0
0
VERTEX
5
7ab
8
Layer1
10
73.5000
20
79.5000
30
0.0
0
SEQEND
5
7ac
8
Layer1
0
POLYLINE
5
7ad
8
Layer1
66
1
10
0.0
20
0.0
30
0.0
70
1
0
VERTEX
5
7ae
8
Layer1
10
92.5000
20
79.5000
30
0.0
0
VERTEX
5
7af
8
Layer1
10
93.3000
20
79.5000
30
0.0
0
VERTEX
5
7b0
8
Layer1
10
93.3000
20
91.5000
30
0.0
0
VERTEX
5
7b1
8
Layer1
10
92.5000
20
91.5000
30
0.0
0
VERTEX
5
7b2
8
Layer1
10
92.5000
20
92.5000
30
0.0
0
VERTEX
5
7b3
8
Layer1
10
78.5000
20
92.5000
30
0.0
0
VERTEX
5
7b4
8
Layer1
10
78.5000
20
91.5000
30
0.0
0
VERTEX
5
7b5
8
Layer1
10
77.7000
20
91.5000
30
0.0
0
VERTEX
5
7b6
8
Layer1
10
77.7000
20
79.5000
30
0.0
0
VERTEX
5
7b7
8
Layer1
10
78.5000
20
79.5000
30
0.0
0
VERTEX
5
7b8
8
Layer1
10
78.5000
20
78.5000
30
0.0
0
VERTEX
5
7b9
8
Layer1
10
92.5000
20
78.5000
30
0.0
0
VERTEX
5
7ba
8
Layer1
10
92.5000
20
79.5000
30
0.0
0
SEQEND
5
7bb
8
Layer1
0
POLYLINE
5
7bc
8
Layer1
66
1
10
0.0
20
0.0
30
0.0
70
1
0
VERTEX
5
7bd
8
Layer1
10
111.5000
20
79.5000
30
0.0
0
VERTEX
5
7be
8
Layer1
10
112.3000
20
79.5000
30
0.0
0
VERTEX
5
7bf
8
Layer1
10
112.3000
20
91.5000
30
0.0
0
VERTEX
5
7c0
8
Layer1
10
111.5000
20
91.5000
30
0.0
0
VERTEX
5
7c1
8
Layer1
10
111.5000
20
92.5000
30
0.0
0
VERTEX
5
7c2
8
Layer1
10
97.5000
20
92.5000
30
0.0
0
VERTEX
5
7c3
8
Layer1
10
97.5000
20
91.5000
30
0.0
0
VERTEX
5
7c4
8
Layer1
10
96.7000
20
91.5000
30
0.0
0
VERTEX
5
7c5
8
Layer1
10
96.7000
20
79.5000
30
0.0
0
VERTEX
5
7c6
8
Layer1
10
97.5000
20
79.5000
30
0.0
0
VERTEX
5
7c7
8
Layer1
10
97.5000
20
78.5000
30
0.0
0
VERTEX
5
7c8
8
Layer1
10
111.5000
20
78.5000
30
0.0
0
VERTEX
5
7c9
8
Layer1
10
111.5000
20
79.5000
30
0.0
0
SEQEND
5
7ca
8
Layer1
0
POLYLINE
5
7cb
8
Layer1
66
1
10
0.0
20
0.0
30
0.0
70
1
0
VERTEX
5
7cc
8
Layer1
10
130.5000
20
79.5000
30
0.0
0
VERTEX
5
7cd
8
Layer1
10
131.3000
20
79.5000
30
0.0
0
VERTEX
5
7ce
8
Layer1
10
131.3000
20
91.5000
30
0.0
0
VERTEX
5
7cf
8
Layer1
10
130.5000
20
91.5000
30
0.0
0
VERTEX
5
7d0
8
Layer1
10
130.5000
20
92.5000
30
0.0
0
VERTEX
5
7d1
8
Layer1
10
116.5000
20
92.5000
30
0.0
0
VERTEX
5
7d2
8
Layer1
10
116.5000
20
91.5000
30
0.0
0
VERTEX
5
7d3
8
Layer1
10
115.7000
20
91.5000
30
0.0
0
VERTEX
5
7d4
8
Layer1
10
115.7000
20
79.5000
30
0.0
0
VERTEX
5
7d5
8
Layer1
10
116.5000
20
79.5000
30
0.0
0
VERTEX
5
7d6
8
Layer1
10
116.5000
20
78.5000
30
0.0
0
VERTEX
5
7d7
8
Layer1
10
130.5000
20
78.5000
30
0.0
0
VERTEX
5
7d8
8
Layer1
10
130.5000
20
79.5000
30
0.0
0
SEQEND
5
7d9
8
Layer1
0
POLYLINE
5
7da
8
Layer1
66
1
10
0.0
20
0.0
30
0.0
70
1
0
VERTEX
5
7db
8
Layer1
10
149.5000
20
79.5000
30
0.0
0
VERTEX
5
7dc
8
Layer1
10
150.3000
20
79.5000
30
0.0
0
VERTEX
5
7dd
8
Layer1
10
150.3000
20
91.5000
30
0.0
0
VERTEX
5
7de
8
Layer1
10
149.5000
20
91.5000
30
0.0
0
VERTEX
5
7df
8
Layer1
10
149.5000
20
92.5000
30
0.0
0
VERTEX
5
7e0
8
Layer1
10
135.5000
20
92.5000
30
0.0
0
VERTEX
5
7e1
8
Layer1
10
135.5000
20
91.5000
30
0.0
0
VERTEX
5
7e2
8
Layer1
10
134.7000
20
91.5000
30
0.0
0
VERTEX
5
7e3
8
Layer1
10
134.7000
20
79.5000
30
0.0
0
VERTEX
5
7e4
8
Layer1
10
135.5000
20
79.5000
30
0.0
0
VERTEX
5
7e5
8
Layer1
10
135.5000
20
78.5000
30
0.0
0
VERTEX
5
7e6
8
Layer1
10
149.5000
20
78.5000
30
0.0
0
VERTEX
5
7e7
8
Layer1
10
149.5000
20
79.5000
30
0.0
0
SEQEND
5
7e8
8
Layer1
0
POLYLINE
5
7e9
8
Layer1
66
1
10
0.0
20
0.0
30
0.0
70
1
0
VERTEX
5
7ea
8
Layer1
10
168.5000
20
79.5000
30
0.0
0
VERTEX
5
7eb
8
Layer1
10
169.3000
20
79.5000
30
0.0
0
VERTEX
5
7ec
8
Layer1
10
169.3000
20
91.5000
30
0.0
0
VERTEX
5
7ed
8
Layer1
10
168.5000
20
91.5000
30
0.0
0
VERTEX
5
7ee
8
Layer1
10
168.5000
20
92.5000
30
0.0
0
VERTEX
5
7ef
8
Layer1
10
154.5000
20
92.5000
30
0.0
0
VERTEX
5
7f0
8
Layer1
10
154.5000
20
91.5000
30
0.0
0
VERTEX
5
7f1
8
Layer1
10
153.7000
20
91.5000
30
0.0
0
VERTEX
5
7f2
8
Layer1
10
153.7000
20
79.5000
30
0.0
0
VERTEX
5
7f3
8
Layer1
10
154.5000
20
79.5000
30
0.0
0
VERTEX
5
7f4
8
Layer1
10
154.5000
20
78.5000
30
0.0
0
VERTEX
5
7f5
8
Layer1
10
168.5000
20
78.5000
30
0.0
0
VERTEX
5
7f6
8
Layer1
10
168.5000
20
79.5000
30
0.0
0
SEQEND
5
7f7
8
Layer1
0
POLYLINE
5
7f8
8
Layer1
66
1
10
0.0
20
0.0
30
0.0
70
1
0
VERTEX
5
7f9
8
Layer1
10
187.5000
20
79.5000
30
0.0
0
VERTEX
5
7fa
8
Layer1
10
188.3000
20
79.5000
30
0.0
0
VERTEX
5
7fb
8
Layer1
10
188.3000
20
91.5000
30
0.0
0
VERTEX
5
7fc
8
Layer1
10
187.5000
20
91.5000
30
0.0
0
VERTEX
5
7fd
8
Layer1
10
187.5000
20
92.5000
30
0.0
0
VERTEX
5
7fe
8
Layer1
10
173.5000
20
92.5000
30
0.0
0
VERTEX
5
7ff
8
Layer1
10
173.5000
20
91.5000
30
0.0
0
VERTEX
5
800
8
Layer1
10
172.7000
20
91.5000
30
0.0
0
VERTEX
5
801
8
Layer1
10
172.7000
20
79.5000
30
0.0
0
VERTEX
5
802
8
Layer1
10
173.5000
20
79.5000
30
0.0
0
VERTEX
5
803
8
Layer1
10
173.5000
20
78.5000
30
0.0
0
VERTEX
5
804
8
Layer1
10
187.5000
20
78.5000
30
0.0
0
VERTEX
5
805
8
Layer1
10
187.5000
20
79.5000
30
0.0
0
SEQEND
5
806
8
Layer1
0
POLYLINE
5
807
8
Layer1
66
1
10
0.0
20
0.0
30
0.0
70
1
0
VERTEX
5
808
8
Layer1
10
206.5000
20
79.5000
30
0.0
0
VERTEX
5
809
8
Layer1
10
207.3000
20
79.5000
30
0.0
0
VERTEX
5
80a
8
Layer1
10
207.3000
20
91.5000
30
0.0
0
VERTEX
5
80b
8
Layer1
10
206.5000
20
91.5000
30
0.0
0
VERTEX
5
80c
8
Layer1
10
206.5000
20
92.5000
30
0.0
0
VERTEX
5
80d
8
Layer1
10
192.5000
20
92.5000
30
0.0
0
VERTEX
5
80e
8
Layer1
10
192.5000
20
91.5000
30
0.0
0
VERTEX
5
80f
8
Layer1
10
191.7000
20
91.5000
30
0.0
0
VERTEX
5
810
8
Layer1
10
191.7000
20
79.5000
30
0.0
0
VERTEX
5
811
8
Layer1
10
192.5000
20
79.5000
30
0.0
0
VERTEX
5
812
8
Layer1
10
192.5000
20
78.5000
30
0.0
0
VERTEX
5
813
8
Layer1
10
206.5000
20
78.5000
30
0.0
0
VERTEX
5
814
8
Layer1
10
206.5000
20
79.5000
30
0.0
0
SEQEND
5
815
8
Layer1
0
POLYLINE
5
816
8
Layer1
66
1
10
0.0
20
0.0
30
0.0
70
1
0
VERTEX
5
817
8
Layer1
10
225.5000
20
79.5000
30
0.0
0
VERTEX
5
818
8
Layer1
10
226.3000
20
79.5000
30
0.0
0
VERTEX
5
819
8
Layer1
10
226.3000
20
91.5000
30
0.0
0
VERTEX
5
81a
8
Layer1
10
225.5000
20
91.5000
30
0.0
0
VERTEX
5
81b
8
Layer1
10
225.5000
20
92.5000
30
0.0
0
VERTEX
5
81c
8
Layer1
10
211.5000
20
92.5000
30
0.0
0
VERTEX
5
81d
8
Layer1
10
211.5000
20
91.5000
30
0.0
0
VERTEX
5
81e
8
Layer1
10
210.7000
20
91.5000
30
0.0
0
VERTEX
5
81f
8
Layer1
10
210.7000
20
79.5000
30
0.0
0
VERTEX
5
820
8
Layer1
10
211.5000
20
79.5000
30
0.0
0
VERTEX
5
821
8
Layer1
10
211.5000
20
78.5000
30
0.0
0
VERTEX
5
822
8
Layer1
10
225.5000
20
78.5000
30
0.0
0
VERTEX
5
823
8
Layer1
10
225.5000
20
79.5000
30
0.0
0
SEQEND
5
824
8
Layer1
0
POLYLINE
5
825
8
Layer1
66
1
10
0.0
20
0.0
30
0.0
70
1
0
VERTEX
5
826
8
Layer1
10
244.5000
20
79.5000
30
0.0
0
VERTEX
5
827
8
Layer1
10
245.3000
20
79.5000
30
0.0
0
VERTEX
5
828
8
Layer1
10
245.3000
20
91.5000
30
0.0
0
VERTEX
5
829
8
Layer1
10
244.5000
20
91.5000
30
0.0
0
VERTEX
5
82a
8
Layer1
10
244.5000
20
92.5000
30
0.0
0
VERTEX
5
82b
8
Layer1
10
230.5000
20
92.5000
30
0.0
0
VERTEX
5
82c
8
Layer1
10
230.5000
20
91.5000
30
0.0
0
VERTEX
5
82d
8
Layer1
10
229.7000
20
91.5000
30
0.0
0
VERTEX
5
82e
8
Layer1
10
229.7000
20
79.5000
30
0.0
0
VERTEX
5
82f
8
Layer1
10
230.5000
20
79.5000
30
0.0
0
VERTEX
5
830
8
Layer1
10
230.5000
20
78.5000
30
0.0
0
VERTEX
5
831
8
Layer1
10
244.5000
20
78.5000
30
0.0
0
VERTEX
5
832
8
Layer1
10
244.5000
20
79.5000
30
0.0
0
SEQEND
5
833
8
Layer1
0
POLYLINE
5
834
8
Layer1
66
1
10
0.0
20
0.0
30
0.0
70
1
0
VERTEX
5
835
8
Layer1
10
255.7500
20
78.7300
30
0.0
0
VERTEX
5
836
8
Layer1
10
257.4250
20
78.7300
30
0.0
0
VERTEX
5
837
8
Layer1
10
257.4250
20
79.5300
30
0.0
0
VERTEX
5
838
8
Layer1
10
258.2000
20
79.5300
30
0.0
0
VERTEX
5
839
8
Layer1
10
258.2000
20
79.5000
30
0.0
0
VERTEX
5
83a
8
Layer1
10
259.0000
20
79.5000
30
0.0
0
VERTEX
5
83b
8
Layer1
10
259.0000
20
78.5000
30
0.0
0
VERTEX
5
83c
8
Layer1
10
273.0000
20
78.5000
30
0.0
0
VERTEX
5
83d
8
Layer1
10
273.0000
20
79.5000
30
0.0
0
VERTEX
5
83e
8
Layer1
10
273.8000
20
79.5000
30
0.0
0
VERTEX
5
83f
8
Layer1
10
273.8000
20
79.5300
30
0.0
0
VERTEX
5
840
8
Layer1
10
274.5750
20
79.5300
30
0.0
0
VERTEX
5
841
8
Layer1
10
274.5750
20
78.7300
30
0.0
0
VERTEX
5
842
8
Layer1
10
276.2500
20
78.7300
30
0.0
0
VERTEX
5
843
8
Layer1
10
276.2500
20
77.7380
30
0.0
0
VERTEX
5
844
8
Layer1
10
279.5500
20
77.7380
30
0.0
0
VERTEX
5
845
8
Layer1
10
279.5500
20
78.7300
30
0.0
0
VERTEX
5
846
8
Layer1
10
281.2250
20
78.7300
30
0.0
0
VERTEX
5
847
8
Layer1
10
281.2250
20
85.0000
30
0.0
0
VERTEX
5
848
8
Layer1
10
282.1000
20
85.0000
30
0.0
0
VERTEX
5
849
8
Layer1
10
282.1000
20
87.8000
30
0.0
0
VERTEX
5
84a
8
Layer1
10
281.2250
20
87.8000
30
0.0
0
VERTEX
5
84b
8
Layer1
10
281.2250
20
91.0300
30
0.0
0
VERTEX
5
84c
8
Layer1
10
279.5500
20
91.0300
30
0.0
0
VERTEX
5
84d
8
Layer1
10
279.5500
20
91.7380
30
0.0
0
VERTEX
5
84e
8
Layer1
10
276.2500
20
91.7380
30
0.0
0
VERTEX
5
84f
8
Layer1
10
276.2500
20
91.0300
30
0.0
0
VERTEX
5
850
8
Layer1
10
274.5750
20
91.0300
30
0.0
0
VERTEX
5
851
8
Layer1
10
274.5750
20
90.2300
30
0.0
0
VERTEX
5
852
8
Layer1
10
273.8000
20
90.2300
30
0.0
0
VERTEX
5
853
8
Layer1
10
273.8000
20
91.5000
30
0.0
0
VERTEX
5
854
8
Layer1
10
273.0000
20
91.5000
30
0.0
0
VERTEX
5
855
8
Layer1
10
273.0000
20
92.5000
30
0.0
0
VERTEX
5
856
8
Layer1
10
259.0000
20
92.5000
30
0.0
0
VERTEX
5
857
8
Layer1
10
259.0000
20
91.5000
30
0.0
0
VERTEX
5
858
8
Layer1
10
258.2000
20
91.5000
30
0.0
0
VERTEX
5
859
8
Layer1
10
258.2000
20
90.2300
30
0.0
0
VERTEX
5
85a
8
Layer1
10
257.4250
20
90.2300
30
0.0
0
VERTEX
5
85b
8
Layer1
10
257.4250
20
91.0300
30
0.0
0
VERTEX
5
85c
8
Layer1
10
255.7500
20
91.0300
30
0.0
0
VERTEX
5
85d
8
Layer1
10
255.7500
20
91.7380
30
0.0
0
VERTEX
5
85e
8
Layer1
10
252.4500
20
91.7380
30
0.0
0
VERTEX
5
85f
8
Layer1
10
252.4500
20
91.0300
30
0.0
0
VERTEX
5
860
8
Layer1
10
250.7750
20
91.0300
30
0.0
0
VERTEX
5
861
8
Layer1
10
250.7750
20
87.8000
30
0.0
0
VERTEX
5
862
8
Layer1
10
249.9000
20
87.8000
30
0.0
0
VERTEX
5
863
8
Layer1
10
249.9000
20
85.0000
30
0.0
0
VERTEX
5
864
8
Layer1
10
250.7750
20
85.0000
30
0.0
0
VERTEX
5
865
8
Layer1
10
250.7750
20
78.7300
30
0.0
0
VERTEX
5
866
8
Layer1
10
252.4500
20
78.7300
30
0.0
0
VERTEX
5
867
8
Layer1
10
252.4500
20
77.7380
30
0.0
0
VERTEX
5
868
8
Layer1
10
255.7500
20
77.7380
30
0.0
0
VERTEX
5
869
8
Layer1
10
255.7500
20
78.7300
30
0.0
0
SEQEND
5
86a
8
Layer1
0
POLYLINE
5
86b
8
Layer1
66
1
10
0.0
20
0.0
30
0.0
70
1
0
VERTEX
5
86c
8
Layer1
10
304.3500
20
63.3500
30
0.0
0
VERTEX
5
86d
8
Layer1
10
305.1500
20
63.3500
30
0.0
0
VERTEX
5
86e
8
Layer1
10
305.1500
20
75.3500
30
0.0
0
VERTEX
5
86f
8
Layer1
10
304.3500
20
75.3500
30
0.0
0
VERTEX
5
870
8
Layer1
10
304.3500
20
76.3500
30
0.0
0
VERTEX
5
871
8
Layer1
10
290.3500
20
76.3500
30
0.0
0
VERTEX
5
872
8
Layer1
10
290.3500
20
75.3500
30
0.0
0
VERTEX
5
873
8
Layer1
10
289.5500
20
75.3500
30
0.0
0
VERTEX
5
874
8
Layer1
10
289.5500
20
63.3500
30
0.0
0
VERTEX
5
875
8
Layer1
10
290.3500
20
63.3500
30
0.0
0
VERTEX
5
876
8
Layer1
10
290.3500
20
62.3500
30
0.0
0
VERTEX
5
877
8
Layer1
10
304.3500
20
62.3500
30
0.0
0
VERTEX
5
878
8
Layer1
10
304.3500
20
63.3500
30
0.0
0
SEQEND
5
879
8
Layer1
0
POLYLINE
5
87a
8
Layer1
66
1
10
0.0
20
0.0
30
0.0
70
1
0
VERTEX
5
87b
8
Layer1
10
323.3500
20
63.3500
30
0.0
0
VERTEX
5
87c
8
Layer1
10
324.1500
20
63.3500
30
0.0
0
VERTEX
5
87d
8
Layer1
10
324.1500
20
75.3500
30
0.0
0
VERTEX
5
87e
8
Layer1
10
323.3500
20
75.3500
30
0.0
0
VERTEX
5
87f
8
Layer1
10
323.3500
20
76.3500
30
0.0
0
VERTEX
5
880
8
Layer1
10
309.3500
20
76.3500
30
0.0
0
VERTEX
5
881
8
Layer1
10
309.3500
20
75.3500
30
0.0
0
VERTEX
5
882
8
Layer1
10
308.5500
20
75.3500
30
0.0
0
VERTEX
5
883
8
Layer1
10
308.5500
20
63.3500
30
0.0
0
VERTEX
5
884
8
Layer1
10
309.3500
20
63.3500
30
0.0
0
VERTEX
5
885
8
Layer1
10
309.3500
20
62.3500
30
0.0
0
VERTEX
5
886
8
Layer1
10
323.3500
20
62.3500
30
0.0
0
VERTEX
5
887
8
Layer1
10
323.3500
20
63.3500
30
0.0
0
SEQEND
5
888
8
Layer1
0
POLYLINE
5
889
8
Layer1
66
1
10
0.0
20
0.0
30
0.0
70
1
0
VERTEX
5
88a
8
Layer1
10
342.3500
20
63.3500
30
0.0
0
VERTEX
5
88b
8
Layer1
10
343.1500
20
63.3500
30
0.0
0
VERTEX
5
88c
8
Layer1
10
343.1500
20
75.3500
30
0.0
0
VERTEX
5
88d
8
Layer1
10
342.3500
20
75.3500
30
0.0
0
VERTEX
5
88e
8
Layer1
10
342.3500
20
76.3500
30
0.0
0
VERTEX
5
88f
8
Layer1
10
328.3500
20
76.3500
30
0.0
0
VERTEX
5
890
8
Layer1
10
328.3500
20
75.3500
30
0.0
0
VERTEX
5
891
8
Layer1
10
327.5500
20
75.3500
30
0.0
0
VERTEX
5
892
8
Layer1
10
327.5500
20
63.3500
30
0.0
0
VERTEX
5
893
8
Layer1
10
328.3500
20
63.3500
30
0.0
0
VERTEX
5
894
8
Layer1
10
328.3500
20
62.3500
30
0.0
0
VERTEX
5
895
8
Layer1
10
342.3500
20
62.3500
30
0.0
0
VERTEX
5
896
8
Layer1
10
342.3500
20
63.3500
30
0.0
0
SEQEND
5
897
8
Layer1
0
POLYLINE
5
898
8
Layer1
66
1
10
0.0
20
0.0
30
0.0
70
1
0
VERTEX
5
899
8
Layer1
10
21.2500
20
60.5000
30
0.0
0
VERTEX
5
89a
8
Layer1
10
22.0500
20
60.5000
30
0.0
0
VERTEX
5
89b
8
Layer1
10
22.0500
20
72.5000
30
0.0
0
VERTEX
5
89c
8
Layer1
10
21.2500
20
72.5000
30
0.0
0
VERTEX
5
89d
8
Layer1
10
21.2500
20
73.5000
30
0.0
0
VERTEX
5
89e
8
Layer1
10
7.2500
20
73.5000
30
0.0
0
VERTEX
5
89f
8
Layer1
10
7.2500
20
72.5000
30
0.0
0
VERTEX
5
8a0
8
Layer1
10
6.4500
20
72.5000
30
0.0
0
VERTEX
5
8a1
8
Layer1
10
6.4500
20
60.5000
30
0.0
0
VERTEX
5
8a2
8
Layer1
10
7.2500
20
60.5000
30
0.0
0
VERTEX
5
8a3
8
Layer1
10
7.2500
20
59.5000
30
0.0
0
VERTEX
5
8a4
8
Layer1
10
21.2500
20
59.5000
30
0.0
0
VERTEX
5
8a5
8
Layer1
10
21.2500
20
60.5000
30
0.0
0
SEQEND
5
8a6
8
Layer1
0
POLYLINE
5
8a7
8
Layer1
66
1
10
0.0
20
0.0
30
0.0
70
1
0
VERTEX
5
8a8
8
Layer1
10
45.0000
20
60.5000
30
0.0
0
VERTEX
5
8a9
8
Layer1
10
45.8000
20
60.5000
30
0.0
0
VERTEX
5
8aa
8
Layer1
10
45.8000
20
72.5000
30
0.0
0
VERTEX
5
8ab
8
Layer1
10
45.0000
20
72.5000
30
0.0
0
VERTEX
5
8ac
8
Layer1
10
45.0000
20
73.5000
30
0.0
0
VERTEX
5
8ad
8
Layer1
10
31.0000
20
73.5000
30
0.0
0
VERTEX
5
8ae
8
Layer1
10
31.0000
20
72.5000
30
0.0
0
VERTEX
5
8af
8
Layer1
10
30.2000
20
72.5000
30
0.0
0
VERTEX
5
8b0
8
Layer1
10
30.2000
20
60.5000
30
0.0
0
VERTEX
5
8b1
8
Layer1
10
31.0000
20
60.5000
30
0.0
0
VERTEX
5
8b2
8
Layer1
10
31.0000
20
59.5000
30
0.0
0
VERTEX
5
8b3
8
Layer1
10
45.0000
20
59.5000
30
0.0
0
VERTEX
5
8b4
8
Layer1
10
45.0000
20
60.5000
30
0.0
0
SEQEND
5
8b5
8
Layer1
0
POLYLINE
5
8b6
8
Layer1
66
1
10
0.0
20
0.0
30
0.0
70
1
0
VERTEX
5
8b7
8
Layer1
10
64.0000
20
60.5000
30
0.0
0
VERTEX
5
8b8
8
Layer1
10
64.8000
20
60.5000
30
0.0
0
VERTEX
5
8b9
8
Layer1
10
64.8000
20
72.5000
30
0.0
0
VERTEX
5
8ba
8
Layer1
10
64.0000
20
72.5000
30
0.0
0
VERTEX
5
8bb
8
Layer1
10
64.0000
20
73.5000
30
0.0
0
VERTEX
5
8bc
8
Layer1
10
50.0000
20
73.5000
30
0.0
0
VERTEX
5
8bd
8
Layer1
10
50.0000
20
72.5000
30
0.0
0
VERTEX
5
8be
8
Layer1
10
49.2000
20
72.5000
30
0.0
0
VERTEX
5
8bf
8
Layer1
10
49.2000
20
60.5000
30
0.0
0
VERTEX
5
8c0
8
Layer1
10
50.0000
20
60.5000
30
0.0
0
VERTEX
5
8c1
8
Layer1
10
50.0000
20
59.5000
30
0.0
0
VERTEX
5
8c2
8
Layer1
10
64.0000
20
59.5000
30
0.0
0
VERTEX
5
8c3
8
Layer1
10
64.0000
20
60.5000
30
0.0
0
SEQEND
5
8c4
8
Layer1
0
POLYLINE
5
8c5
8
Layer1
66
1
10
0.0
20
0.0
30
0.0
70
1
0
VERTEX
5
8c6
8
Layer1
10
83.0000
20
60.5000
30
0.0
0
VERTEX
5
8c7
8
Layer1
10
83.8000
20
60.5000
30
0.0
0
VERTEX
5
8c8
8
Layer1
10
83.8000
20
72.5000
30
0.0
0
VERTEX
5
8c9
8
Layer1
10
83.0000
20
72.5000
30
0.0
0
VERTEX
5
8ca
8
Layer1
10
83.0000
20
73.5000
30
0.0
0
VERTEX
5
8cb
8
Layer1
10
69.0000
20
73.5000
30
0.0
0
VERTEX
5
8cc
8
Layer1
10
69.0000
20
72.5000
30
0.0
0
VERTEX
5
8cd
8
Layer1
10
68.2000
20
72.5000
30
0.0
0
VERTEX
5
8ce
8
Layer1
10
68.2000
20
60.5000
30
0.0
0
VERTEX
5
8cf
8
Layer1
10
69.0000
20
60.5000
30
0.0
0
VERTEX
5
8d0
8
Layer1
10
69.0000
20
59.5000
30
0.0
0
VERTEX
5
8d1
8
Layer1
10
83.0000
20
59.5000
30
0.0
0
VERTEX
5
8d2
8
Layer1
10
83.0000
20
60.5000
30
0.0
0
SEQEND
5
8d3
8
Layer1
0
POLYLINE
5
8d4
8
Layer1
66
1
10
0.0
20
0.0
30
0.0
70
1
0
VERTEX
5
8d5
8
Layer1
10
102.0000
20
60.5000
30
0.0
0
VERTEX
5
8d6
8
Layer1
10
102.8000
20
60.5000
30
0.0
0
VERTEX
5
8d7
8
Layer1
10
102.8000
20
72.5000
30
0.0
0
VERTEX
5
8d8
8
Layer1
10
102.0000
20
72.5000
30
0.0
0
VERTEX
5
8d9
8
Layer1
10
102.0000
20
73.5000
30
0.0
0
VERTEX
5
8da
8
Layer1
10
88.0000
20
73.5000
30
0.0
0
VERTEX
5
8db
8
Layer1
10
88.0000
20
72.5000
30
0.0
0
VERTEX
5
8dc
8
Layer1
10
87.2000
20
72.5000
30
0.0
0
VERTEX
5
8dd
8
Layer1
10
87.2000
20
60.5000
30
0.0
0
VERTEX
5
8de
8
Layer1
10
88.0000
20
60.5000
30
0.0
0
VERTEX
5
8df
8
Layer1
10
88.0000
20
59.5000
30
0.0
0
VERTEX
5
8e0
8
Layer1
10
102.0000
20
59.5000
30
0.0
0
VERTEX
5
8e1
8
Layer1
10
102.0000
20
60.5000
30
0.0
0
SEQEND
5
8e2
8
Layer1
0
POLYLINE
5
8e3
8
Layer1
66
1
10
0.0
20
0.0
30
0.0
70
1
0
VERTEX
5
8e4
8
Layer1
10
121.0000
20
60.5000
30
0.0
0
VERTEX
5
8e5
8
Layer1
10
121.8000
20
60.5000
30
0.0
0
VERTEX
5
8e6
8
Layer1
10
121.8000
20
72.5000
30
0.0
0
VERTEX
5
8e7
8
Layer1
10
121.0000
20
72.5000
30
0.0
0
VERTEX
5
8e8
8
Layer1
10
121.0000
20
73.5000
30
0.0
0
VERTEX
5
8e9
8
Layer1
10
107.0000
20
73.5000
30
0.0
0
VERTEX
5
8ea
8
Layer1
10
107.0000
20
72.5000
30
0.0
0
VERTEX
5
8eb
8
Layer1
10
106.2000
20
72.5000
30
0.0
0
VERTEX
5
8ec
8
Layer1
10
106.2000
20
60.5000
30
0.0
0
VERTEX
5
8ed
8
Layer1
10
107.0000
20
60.5000
30
0.0
0
VERTEX
5
8ee
8
Layer1
10
107.0000
20
59.5000
30
0.0
0
VERTEX
5
8ef
8
Layer1
10
121.0000
20
59.5000
30
0.0
0
VERTEX
5
8f0
8
Layer1
10
121.0000
20
60.5000
30
0.0
0
SEQEND
5
8f1
8
Layer1
0
POLYLINE
5
8f2
8
Layer1
66
1
10
0.0
20
0.0
30
0.0
70
1
0
VERTEX
5
8f3
8
Layer1
10
140.0000
20
60.5000
30
0.0
0
VERTEX
5
8f4
8
Layer1
10
140.8000
20
60.5000
30
0.0
0
VERTEX
5
8f5
8
Layer1
10
140.8000
20
72.5000
30
0.0
0
VERTEX
5
8f6
8
Layer1
10
140.0000
20
72.5000
30
0.0
0
VERTEX
5
8f7
8
Layer1
10
140.0000
20
73.5000
30
0.0
0
VERTEX
5
8f8
8
Layer1
10
126.0000
20
73.5000
30
0.0
0
VERTEX
5
8f9
8
Layer1
10
126.0000
20
72.5000
30
0.0
0
VERTEX
5
8fa
8
Layer1
10
125.2000
20
72.5000
30
0.0
0
VERTEX
5
8fb
8
Layer1
10
125.2000
20
60.5000
30
0.0
0
VERTEX
5
8fc
8
Layer1
10
126.0000
20
60.5000
30
0.0
0
VERTEX
5
8fd
8
Layer1
10
126.0000
20
59.5000
30
0.0
0
VERTEX
5
8fe
8
Layer1
10
140.0000
20
59.5000
30
0.0
0
VERTEX
5
8ff
8
Layer1
10
140.0000
20
60.5000
30
0.0
0
SEQEND
5
900
8
Layer1
0
POLYLINE
5
901
8
Layer1
66
1
10
0.0
20
0.0
30
0.0
70
1
0
VERTEX
5
902
8
Layer1
10
159.0000
20
60.5000
30
0.0
0
VERTEX
5
903
8
Layer1
10
159.8000
20
60.5000
30
0.0
0
VERTEX
5
904
8
Layer1
10
159.8000
20
72.5000
30
0.0
0
VERTEX
5
905
8
Layer1
10
159.0000
20
72.5000
30
0.0
0
VERTEX
5
906
8
Layer1
10
159.0000
20
73.5000
30
0.0
0
VERTEX
5
907
8
Layer1
10
145.0000
20
73.5000
30
0.0
0
VERTEX
5
908
8
Layer1
10
145.0000
20
72.5000
30
0.0
0
VERTEX
5
909
8
Layer1
10
144.2000
20
72.5000
30
0.0
0
VERTEX
5
90a
8
Layer1
10
144.2000
20
60.5000
30
0.0
0
VERTEX
5
90b
8
Layer1
10
145.0000
20
60.5000
30
0.0
0
VERTEX
5
90c
8
Layer1
10
145.0000
20
59.5000
30
0.0
0
VERTEX
5
90d
8
Layer1
10
159.0000
20
59.5000
30
0.0
0
VERTEX
5
90e
8
Layer1
10
159.0000
20
60.5000
30
0.0
0
SEQEND
5
90f
8
Layer1
0
POLYLINE
5
910
8
Layer1
66
1
10
0.0
20
0.0
30
0.0
70
1
0
VERTEX
5
911
8
Layer1
10
178.0000
20
60.5000
30
0.0
0
VERTEX
5
912
8
Layer1
10
178.8000
20
60.5000
30
0.0
0
VERTEX
5
913
8
Layer1
10
178.8000
20
72.5000
30
0.0
0
VERTEX
5
914
8
Layer1
10
178.0000
20
72.5000
30
0.0
0
VERTEX
5
915
8
Layer1
10
178.0000
20
73.5000
30
0.0
0
VERTEX
5
916
8
Layer1
10
164.0000
20
73.5000
30
0.0
0
VERTEX
5
917
8
Layer1
10
164.0000
20
72.5000
30
0.0
0
VERTEX
5
918
8
Layer1
10
163.2000
20
72.5000
30
0.0
0
VERTEX
5
919
8
Layer1
10
163.2000
20
60.5000
30
0.0
0
VERTEX
5
91a
8
Layer1
10
164.0000
20
60.5000
30
0.0
0
VERTEX
5
91b
8
Layer1
10
164.0000
20
59.5000
30
0.0
0
VERTEX
5
91c
8
Layer1
10
178.0000
20
59.5000
30
0.0
0
VERTEX
5
91d
8
Layer1
10
178.0000
20
60.5000
30
0.0
0
SEQEND
5
91e
8
Layer1
0
POLYLINE
5
91f
8
Layer1
66
1
10
0.0
20
0.0
30
0.0
70
1
0
VERTEX
5
920
8
Layer1
10
197.0000
20
60.5000
30
0.0
0
VERTEX
5
921
8
Layer1
10
197.8000
20
60.5000
30
0.0
0
VERTEX
5
922
8
Layer1
10
197.8000
20
72.5000
30
0.0
0
VERTEX
5
923
8
Layer1
10
197.0000
20
72.5000
30
0.0
0
VERTEX
5
924
8
Layer1
10
197.0000
20
73.5000
30
0.0
0
VERTEX
5
925
8
Layer1
10
183.0000
20
73.5000
30
0.0
0
VERTEX
5
926
8
Layer1
10
183.0000
20
72.5000
30
0.0
0
VERTEX
5
927
8
Layer1
10
182.2000
20
72.5000
30
0.0
0
VERTEX
5
928
8
Layer1
10
182.2000
20
60.5000
30
0.0
0
VERTEX
5
929
8
Layer1
10
183.0000
20
60.5000
30
0.0
0
VERTEX
5
92a
8
Layer1
10
183.0000
20
59.5000
30
0.0
0
VERTEX
5
92b
8
Layer1
10
197.0000
20
59.5000
30
0.0
0
VERTEX
5
92c
8
Layer1
10
197.0000
20
60.5000
30
0.0
0
SEQEND
5
92d
8
Layer1
0
POLYLINE
5
92e
8
Layer1
66
1
10
0.0
20
0.0
30
0.0
70
1
0
VERTEX
5
92f
8
Layer1
10
216.0000
20
60.5000
30
0.0
0
VERTEX
5
930
8
Layer1
10
216.8000
20
60.5000
30
0.0
0
VERTEX
5
931
8
Layer1
10
216.8000
20
72.5000
30
0.0
0
VERTEX
5
932
8
Layer1
10
216.0000
20
72.5000
30
0.0
0
VERTEX
5
933
8
Layer1
10
216.0000
20
73.5000
30
0.0
0
VERTEX
5
934
8
Layer1
10
202.0000
20
73.5000
30
0.0
0
VERTEX
5
935
8
Layer1
10
202.0000
20
72.5000
30
0.0
0
VERTEX
5
936
8
Layer1
10
201.2000
20
72.5000
30
0.0
0
VERTEX
5
937
8
Layer1
10
201.2000
20
60.5000
30
0.0
0
VERTEX
5
938
8
Layer1
10
202.0000
20
60.5000
30
0.0
0
VERTEX
5
939
8
Layer1
10
202.0000
20
59.5000
30
0.0
0
VERTEX
5
93a
8
Layer1
10
216.0000
20
59.5000
30
0.0
0
VERTEX
5
93b
8
Layer1
10
216.0000
20
60.5000
30
0.0
0
SEQEND
5
93c
8
Layer1
0
POLYLINE
5
93d
8
Layer1
66
1
10
0.0
20
0.0
30
0.0
70
1
0
VERTEX
5
93e
8
Layer1
10
235.0000
20
60.5000
30
0.0
0
VERTEX
5
93f
8
Layer1
10
235.8000
20
60.5000
30
0.0
0
VERTEX
5
940
8
Layer1
10
235.8000
20
72.5000
30
0.0
0
VERTEX
5
941
8
Layer1
10
235.0000
20
72.5000
30
0.0
0
VERTEX
5
942
8
Layer1
10
235.0000
20
73.5000
30
0.0
0
VERTEX
5
943
8
Layer1
10
221.0000
20
73.5000
30
0.0
0
VERTEX
5
944
8
Layer1
10
221.0000
20
72.5000
30
0.0
0
VERTEX
5
945
8
Layer1
10
220.2000
20
72.5000
30
0.0
0
VERTEX
5
946
8
Layer1
10
220.2000
20
60.5000
30
0.0
0
VERTEX
5
947
8
Layer1
10
221.0000
20
60.5000
30
0.0
0
VERTEX
5
948
8
Layer1
10
221.0000
20
59.5000
30
0.0
0
VERTEX
5
949
8
Layer1
10
235.0000
20
59.5000
30
0.0
0
VERTEX
5
94a
8
Layer1
10
235.0000
20
60.5000
30
0.0
0
SEQEND
5
94b
8
Layer1
0
POLYLINE
5
94c
8
Layer1
66
1
10
0.0
20
0.0
30
0.0
70
1
0
VERTEX
5
94d
8
Layer1
10
254.0000
20
60.5000
30
0.0
0
VERTEX
5
94e
8
Layer1
10
254.8000
20
60.5000
30
0.0
0
VERTEX
5
94f
8
Layer1
10
254.8000
20
72.5000
30
0.0
0
VERTEX
5
950
8
Layer1
10
254.0000
20
72.5000
30
0.0
0
VERTEX
5
951
8
Layer1
10
254.0000
20
73.5000
30
0.0
0
VERTEX
5
952
8
Layer1
10
240.0000
20
73.5000
30
0.0
0
VERTEX
5
953
8
Layer1
10
240.0000
20
72.5000
30
0.0
0
VERTEX
5
954
8
Layer1
10
239.2000
20
72.5000
30
0.0
0
VERTEX
5
955
8
Layer1
10
239.2000
20
60.5000
30
0.0
0
VERTEX
5
956
8
Layer1
10
240.0000
20
60.5000
30
0.0
0
VERTEX
5
957
8
Layer1
10
240.0000
20
59.5000
30
0.0
0
VERTEX
5
958
8
Layer1
10
254.0000
20
59.5000
30
0.0
0
VERTEX
5
959
8
Layer1
10
254.0000
20
60.5000
30
0.0
0
SEQEND
5
95a
8
Layer1
0
POLYLINE
5
95b
8
Layer1
66
1
10
0.0
20
0.0
30
0.0
70
1
0
VERTEX
5
95c
8
Layer1
10
277.7500
20
60.5000
30
0.0
0
VERTEX
5
95d
8
Layer1
10
278.5500
20
60.5000
30
0.0
0
VERTEX
5
95e
8
Layer1
10
278.5500
20
72.5000
30
0.0
0
VERTEX
5
95f
8
Layer1
10
277.7500
20
72.5000
30
0.0
0
VERTEX
5
960
8
Layer1
10
277.7500
20
73.5000
30
0.0
0
VERTEX
5
961
8
Layer1
10
263.7500
20
73.5000
30
0.0
0
VERTEX
5
962
8
Layer1
10
263.7500
20
72.5000
30
0.0
0
VERTEX
5
963
8
Layer1
10
262.9500
20
72.5000
30
0.0
0
VERTEX
5
964
8
Layer1
10
262.9500
20
60.5000
30
0.0
0
VERTEX
5
965
8
Layer1
10
263.7500
20
60.5000
30
0.0
0
VERTEX
5
966
8
Layer1
10
263.7500
20
59.5000
30
0.0
0
VERTEX
5
967
8
Layer1
10
277.7500
20
59.5000
30
0.0
0
VERTEX
5
968
8
Layer1
10
277.7500
20
60.5000
30
0.0
0
SEQEND
5
969
8
Layer1
0
POLYLINE
5
96a
8
Layer1
66
1
10
0.0
20
0.0
30
0.0
70
1
0
VERTEX
5
96b
8
Layer1
10
296.6000
20
43.5800
30
0.0
0
VERTEX
5
96c
8
Layer1
10
298.2750
20
43.5800
30
0.0
0
VERTEX
5
96d
8
Layer1
10
298.2750
20
44.3800
30
0.0
0
VERTEX
5
96e
8
Layer1
10
299.0500
20
44.3800
30
0.0
0
VERTEX
5
96f
8
Layer1
10
299.0500
20
44.3500
30
0.0
0
VERTEX
5
970
8
Layer1
10
299.8500
20
44.3500
30
0.0
0
VERTEX
5
971
8
Layer1
10
299.8500
20
43.3500
30
0.0
0
VERTEX
5
972
8
Layer1
10
313.8500
20
43.3500
30
0.0
0
VERTEX
5
973
8
Layer1
10
313.8500
20
44.3500
30
0.0
0
VERTEX
5
974
8
Layer1
10
314.6500
20
44.3500
30
0.0
0
VERTEX
5
975
8
Layer1
10
314.6500
20
44.3800
30
0.0
0
VERTEX
5
976
8
Layer1
10
315.4250
20
44.3800
30
0.0
0
VERTEX
5
977
8
Layer1
10
315.4250
20
43.5800
30
0.0
0
VERTEX
5
978
8
Layer1
10
317.1000
20
43.5800
30
0.0
0
VERTEX
5
979
8
Layer1
10
317.1000
20
42.5880
30
0.0
0
VERTEX
5
97a
8
Layer1
10
320.4000
20
42.5880
30
0.0
0
VERTEX
5
97b
8
Layer1
10
320.4000
20
43.5800
30
0.0
0
VERTEX
5
97c
8
Layer1
10
322.0750
20
43.5800
30
0.0
0
VERTEX
5
97d
8
Layer1
10
322.0750
20
49.8500
30
0.0
0
VERTEX
5
97e
8
Layer1
10
322.9500
20
49.8500
30
0.0
0
VERTEX
5
97f
8
Layer1
10
322.9500
20
52.6500
30
0.0
0
VERTEX
5
980
8
Layer1
10
322.0750
20
52.6500
30
0.0
0
VERTEX
5
981
8
Layer1
10
322.0750
20
55.8800
30
0.0
0
VERTEX
5
982
8
Layer1
10
320.4000
20
55.8800
30
0.0
0
VERTEX
5
983
8
Layer1
10
320.4000
20
56.5880
30
0.0
0
VERTEX
5
984
8
Layer1
10
317.1000
20
56.5880
30
0.0
0
VERTEX
5
985
8
Layer1
10
317.1000
20
55.8800
30
0.0
0
VERTEX
5
986
8
Layer1
10
315.4250
20
55.8800
30
0.0
0
VERTEX
5
987
8
Layer1
10
315.4250
20
55.0800
30
0.0
0
VERTEX
5
988
8
Layer1
10
314.6500
20
55.0800
30
0.0
0
VERTEX
5
989
8
Layer1
10
314.6500
20
56.3500
30
0.0
0
VERTEX
5
98a
8
Layer1
10
313.8500
20
56.3500
30
0.0
0
VERTEX
5
98b
8
Layer1
10
313.8500
20
57.3500
30
0.0
0
VERTEX
5
98c
8
Layer1
10
299.8500
20
57.3500
30
0.0
0
VERTEX
5
98d
8
Layer1
10
299.8500
20
56.3500
30
0.0
0
VERTEX
5
98e
8
Layer1
10
299.0500
20
56.3500
30
0.0
0
VERTEX
5
98f
8
Layer1
10
299.0500
20
55.0800
30
0.0
0
VERTEX
5
990
8
Layer1
10
298.2750
20
55.0800
30
0.0
0
VERTEX
5
991
8
Layer1
10
298.2750
20
55.8800
30
0.0
0
VERTEX
5
992
8
Layer1
10
296.6000
20
55.8800
30
0.0
0
VERTEX
5
993
8
Layer1
10
296.6000
20
56.5880
30
0.0
0
VERTEX
5
994
8
Layer1
10
293.3000
20
56.5880
30
0.0
0
VERTEX
5
995
8
Layer1
10
293.3000
20
55.8800
30
0.0
0
VERTEX
5
996
8
Layer1
10
291.6250
20
55.8800
30
0.0
0
VERTEX
5
997
8
Layer1
10
291.6250
20
52.6500
30
0.0
0
VERTEX
5
998
8
Layer1
10
290.7500
20
52.6500
30
0.0
0
VERTEX
5
999
8
Layer1
10
290.7500
20
49.8500
30
0.0
0
VERTEX
5
99a
8
Layer1
10
291.6250
20
49.8500
30
0.0
0
VERTEX
5
99b
8
Layer1
10
291.6250
20
43.5800
30
0.0
0
VERTEX
5
99c
8
Layer1
10
293.3000
20
43.5800
30
0.0
0
VERTEX
5
99d
8
Layer1
10
293.3000
20
42.5880
30
0.0
0
VERTEX
5
99e
8
Layer1
10
296.6000
20
42.5880
30
0.0
0
VERTEX
5
99f
8
Layer1
10
296.6000
20
43.5800
30
0.0
0
SEQEND
5
9a0
8
Layer1
0
POLYLINE
5
9a1
8
Layer1
66
1
10
0.0
20
0.0
30
0.0
70
1
0
VERTEX
5
9a2
8
Layer1
10
342.3500
20
44.3500
30
0.0
0
VERTEX
5
9a3
8
Layer1
10
343.1500
20
44.3500
30
0.0
0
VERTEX
5
9a4
8
Layer1
10
343.1500
20
56.3500
30
0.0
0
VERTEX
5
9a5
8
Layer1
10
342.3500
20
56.3500
30
0.0
0
VERTEX
5
9a6
8
Layer1
10
342.3500
20
57.3500
30
0.0
0
VERTEX
5
9a7
8
Layer1
10
328.3500
20
57.3500
30
0.0
0
VERTEX
5
9a8
8
Layer1
10
328.3500
20
56.3500
30
0.0
0
VERTEX
5
9a9
8
Layer1
10
327.5500
20
56.3500
30
0.0
0
VERTEX
5
9aa
8
Layer1
10
327.5500
20
44.3500
30
0.0
0
VERTEX
5
9ab
8
Layer1
10
328.3500
20
44.3500
30
0.0
0
VERTEX
5
9ac
8
Layer1
10
328.3500
20
43.3500
30
0.0
0
VERTEX
5
9ad
8
Layer1
10
342.3500
20
43.3500
30
0.0
0
VERTEX
5
9ae
8
Layer1
10
342.3500
20
44.3500
30
0.0
0
SEQEND
5
9af
8
Layer1
0
POLYLINE
5
9b0
8
Layer1
66
1
10
0.0
20
0.0
30
0.0
70
1
0
VERTEX
5
9b1
8
Layer1
10
23.6250
20
41.5000
30
0.0
0
VERTEX
5
9b2
8
Layer1
10
24.4250
20
41.5000
30
0.0
0
VERTEX
5
9b3
8
Layer1
10
24.4250
20
53.5000
30
0.0
0
VERTEX
5
9b4
8
Layer1
10
23.6250
20
53.5000
30
0.0
0
VERTEX
5
9b5
8
Layer1
10
23.6250
20
54.5000
30
0.0
0
VERTEX
5
9b6
8
Layer1
10
9.6250
20
54.5000
30
0.0
0
VERTEX
5
9b7
8
Layer1
10
9.6250
20
53.5000
30
0.0
0
VERTEX
5
9b8
8
Layer1
10
8.8250
20
53.5000
30
0.0
0
VERTEX
5
9b9
8
Layer1
10
8.8250
20
41.5000
30
0.0
0
VERTEX
5
9ba
8
Layer1
10
9.6250
20
41.5000
30
0.0
0
VERTEX
5
9bb
8
Layer1
10
9.6250
20
40.5000
30
0.0
0
VERTEX
5
9bc
8
Layer1
10
23.6250
20
40.5000
30
0.0
0
VERTEX
5
9bd
8
Layer1
10
23.6250
20
41.5000
30
0.0
0
SEQEND
5
9be
8
Layer1
0
POLYLINE
5
9bf
8
Layer1
66
1
10
0.0
20
0.0
30
0.0
70
1
0
VERTEX
5
9c0
8
Layer1
10
49.7500
20
41.5000
30
0.0
0
VERTEX
5
9c1
8
Layer1
10
50.5500
20
41.5000
30
0.0
0
VERTEX
5
9c2
8
Layer1
10
50.5500
20
53.5000
30
0.0
0
VERTEX
5
9c3
8
Layer1
10
49.7500
20
53.5000
30
0.0
0
VERTEX
5
9c4
8
Layer1
10
49.7500
20
54.5000
30
0.0
0
VERTEX
5
9c5
8
Layer1
10
35.7500
20
54.5000
30
0.0
0
VERTEX
5
9c6
8
Layer1
10
35.7500
20
53.5000
30
0.0
0
VERTEX
5
9c7
8
Layer1
10
34.9500
20
53.5000
30
0.0
0
VERTEX
5
9c8
8
Layer1
10
34.9500
20
41.5000
30
0.0
0
VERTEX
5
9c9
8
Layer1
10
35.7500
20
41.5000
30
0.0
0
VERTEX
5
9ca
8
Layer1
10
35.7500
20
40.5000
30
0.0
0
VERTEX
5
9cb
8
Layer1
10
49.7500
20
40.5000
30
0.0
0
VERTEX
5
9cc
8
Layer1
10
49.7500
20
41.5000
30
0.0
0
SEQEND
5
9cd
8
Layer1
0
POLYLINE
5
9ce
8
Layer1
66
1
10
0.0
20
0.0
30
0.0
70
1
0
VERTEX
5
9cf
8
Layer1
10
68.7500
20
41.5000
30
0.0
0
VERTEX
5
9d0
8
Layer1
10
69.5500
20
41.5000
30
0.0
0
VERTEX
5
9d1
8
Layer1
10
69.5500
20
53.5000
30
0.0
0
VERTEX
5
9d2
8
Layer1
10
68.7500
20
53.5000
30
0.0
0
VERTEX
5
9d3
8
Layer1
10
68.7500
20
54.5000
30
0.0
0
VERTEX
5
9d4
8
Layer1
10
54.7500
20
54.5000
30
0.0
0
VERTEX
5
9d5
8
Layer1
10
54.7500
20
53.5000
30
0.0
0
VERTEX
5
9d6
8
Layer1
10
53.9500
20
53.5000
30
0.0
0
VERTEX
5
9d7
8
Layer1
10
53.9500
20
41.5000
30
0.0
0
VERTEX
5
9d8
8
Layer1
10
54.7500
20
41.5000
30
0.0
0
VERTEX
5
9d9
8
Layer1
10
54.7500
20
40.5000
30
0.0
0
VERTEX
5
9da
8
Layer1
10
68.7500
20
40.5000
30
0.0
0
VERTEX
5
9db
8
Layer1
10
68.7500
20
41.5000
30
0.0
0
SEQEND
5
9dc
8
Layer1
0
POLYLINE
5
9dd
8
Layer1
66
1
10
0.0
20
0.0
30
0.0
70
1
0
VERTEX
5
9de
8
Layer1
10
87.7500
20
41.5000
30
0.0
0
VERTEX
5
9df
8
Layer1
10
88.5500
20
41.5000
30
0.0
0
VERTEX
5
9e0
8
Layer1
10
88.5500
20
53.5000
30
0.0
0
VERTEX
5
9e1
8
Layer1
10
87.7500
20
53.5000
30
0.0
0
VERTEX
5
9e2
8
Layer1
10
87.7500
20
54.5000
30
0.0
0
VERTEX
5
9e3
8
Layer1
10
73.7500
20
54.5000
30
0.0
0
VERTEX
5
9e4
8
Layer1
10
73.7500
20
53.5000
30
0.0
0
VERTEX
5
9e5
8
Layer1
10
72.9500
20
53.5000
30
0.0
0
VERTEX
5
9e6
8
Layer1
10
72.9500
20
41.5000
30
0.0
0
VERTEX
5
9e7
8
Layer1
10
73.7500
20
41.5000
30
0.0
0
VERTEX
5
9e8
8
Layer1
10
73.7500
20
40.5000
30
0.0
0
VERTEX
5
9e9
8
Layer1
10
87.7500
20
40.5000
30
0.0
0
VERTEX
5
9ea
8
Layer1
10
87.7500
20
41.5000
30
0.0
0
SEQEND
5
9eb
8
Layer1
0
POLYLINE
5
9ec
8
Layer1
66
1
10
0.0
20
0.0
30
0.0
70
1
0
VERTEX
5
9ed
8
Layer1
10
106.7500
20
41.5000
30
0.0
0
VERTEX
5
9ee
8
Layer1
10
107.5500
20
41.5000
30
0.0
0
VERTEX
5
9ef
8
Layer1
10
107.5500
20
53.5000
30
0.0
0
VERTEX
5
9f0
8
Layer1
10
106.7500
20
53.5000
30
0.0
0
VERTEX
5
9f1
8
Layer1
10
106.7500
20
54.5000
30
0.0
0
VERTEX
5
9f2
8
Layer1
10
92.7500
20
54.5000
30
0.0
0
VERTEX
5
9f3
8
Layer1
10
92.7500
20
53.5000
30
0.0
0
VERTEX
5
9f4
8
Layer1
10
91.9500
20
53.5000
30
0.0
0
VERTEX
5
9f5
8
Layer1
10
91.9500
20
41.5000
30
0.0
0
VERTEX
5
9f6
8
Layer1
10
92.7500
20
41.5000
30
0.0
0
VERTEX
5
9f7
8
Layer1
10
92.7500
20
40.5000
30
0.0
0
VERTEX
5
9f8
8
Layer1
10
106.7500
20
40.5000
30
0.0
0
VERTEX
5
9f9
8
Layer1
10
106.7500
20
41.5000
30
0.0
0
SEQEND
5
9fa
8
Layer1
0
POLYLINE
5
9fb
8
Layer1
66
1
10
0.0
20
0.0
30
0.0
70
1
0
VERTEX
5
9fc
8
Layer1
10
125.7500
20
41.5000
30
0.0
0
VERTEX
5
9fd
8
Layer1
10
126.5500
20
41.5000
30
0.0
0
VERTEX
5
9fe
8
Layer1
10
126.5500
20
53.5000
30
0.0
0
VERTEX
5
9ff
8
Layer1
10
125.7500
20
53.5000
30
0.0
0
VERTEX
5
a00
8
Layer1
10
125.7500
20
54.5000
30
0.0
0
VERTEX
5
a01
8
Layer1
10
111.7500
20
54.5000
30
0.0
0
VERTEX
5
a02
8
Layer1
10
111.7500
20
53.5000
30
0.0
0
VERTEX
5
a03
8
Layer1
10
110.9500
20
53.5000
30
0.0
0
VERTEX
5
a04
8
Layer1
10
110.9500
20
41.5000
30
0.0
0
VERTEX
5
a05
8
Layer1
10
111.7500
20
41.5000
30
0.0
0
VERTEX
5
a06
8
Layer1
10
111.7500
20
40.5000
30
0.0
0
VERTEX
5
a07
8
Layer1
10
125.7500
20
40.5000
30
0.0
0
VERTEX
5
a08
8
Layer1
10
125.7500
20
41.5000
30
0.0
0
SEQEND
5
a09
8
Layer1
0
POLYLINE
5
a0a
8
Layer1
66
1
10
0.0
20
0.0
30
0.0
70
1
0
VERTEX
5
a0b
8
Layer1
10
144.7500
20
41.5000
30
0.0
0
VERTEX
5
a0c
8
Layer1
10
145.5500
20
41.5000
30
0.0
0
VERTEX
5
a0d
8
Layer1
10
145.5500
20
53.5000
30
0.0
0
VERTEX
5
a0e
8
Layer1
10
144.7500
20
53.5000
30
0.0
0
VERTEX
5
a0f
8
Layer1
10
144.7500
20
54.5000
30
0.0
0
VERTEX
5
a10
8
Layer1
10
130.7500
20
54.5000
30
0.0
0
VERTEX
5
a11
8
Layer1
10
130.7500
20
53.5000
30
0.0
0
VERTEX
5
a12
8
Layer1
10
129.9500
20
53.5000
30
0.0
0
VERTEX
5
a13
8
Layer1
10
129.9500
20
41.5000
30
0.0
0
VERTEX
5
a14
8
Layer1
10
130.7500
20
41.5000
30
0.0
0
VERTEX
5
a15
8
Layer1
10
130.7500
20
40.5000
30
0.0
0
VERTEX
5
a16
8
Layer1
10
144.7500
20
40.5000
30
0.0
0
VERTEX
5
a17
8
Layer1
10
144.7500
20
41.5000
30
0.0
0
SEQEND
5
a18
8
Layer1
0
POLYLINE
5
a19
8
Layer1
66
1
10
0.0
20
0.0
30
0.0
70
1
0
VERTEX
5
a1a
8
Layer1
10
163.7500
20
41.5000
30
0.0
0
VERTEX
5
a1b
8
Layer1
10
164.5500
20
41.5000
30
0.0
0
VERTEX
5
a1c
8
Layer1
10
164.5500
20
53.5000
30
0.0
0
VERTEX
5
a1d
8
Layer1
10
163.7500
20
53.5000
30
0.0
0
VERTEX
5
a1e
8
Layer1
10
163.7500
20
54.5000
30
0.0
0
VERTEX
5
a1f
8
Layer1
10
149.7500
20
54.5000
30
0.0
0
VERTEX
5
a20
8
Layer1
10
149.7500
20
53.5000
30
0.0
0
VERTEX
5
a21
8
Layer1
10
148.9500
20
53.5000
30
0.0
0
VERTEX
5
a22
8
Layer1
10
148.9500
20
41.5000
30
0.0
0
VERTEX
5
a23
8
Layer1
10
149.7500
20
41.5000
30
0.0
0
VERTEX
5
a24
8
Layer1
10
149.7500
20
40.5000
30
0.0
0
VERTEX
5
a25
8
Layer1
10
163.7500
20
40.5000
30
0.0
0
VERTEX
5
a26
8
Layer1
10
163.7500
20
41.5000
30
0.0
0
SEQEND
5
a27
8
Layer1
0
POLYLINE
5
a28
8
Layer1
66
1
10
0.0
20
0.0
30
0.0
70
1
0
VERTEX
5
a29
8
Layer1
10
182.7500
20
41.5000
30
0.0
0
VERTEX
5
a2a
8
Layer1
10
183.5500
20
41.5000
30
0.0
0
VERTEX
5
a2b
8
Layer1
10
183.5500
20
53.5000
30
0.0
0
VERTEX
5
a2c
8
Layer1
10
182.7500
20
53.5000
30
0.0
0
VERTEX
5
a2d
8
Layer1
10
182.7500
20
54.5000
30
0.0
0
VERTEX
5
a2e
8
Layer1
10
168.7500
20
54.5000
30
0.0
0
VERTEX
5
a2f
8
Layer1
10
168.7500
20
53.5000
30
0.0
0
VERTEX
5
a30
8
Layer1
10
167.9500
20
53.5000
30
0.0
0
VERTEX
5
a31
8
Layer1
10
167.9500
20
41.5000
30
0.0
0
VERTEX
5
a32
8
Layer1
10
168.7500
20
41.5000
30
0.0
0
VERTEX
5
a33
8
Layer1
10
168.7500
20
40.5000
30
0.0
0
VERTEX
5
a34
8
Layer1
10
182.7500
20
40.5000
30
0.0
0
VERTEX
5
a35
8
Layer1
10
182.7500
20
41.5000
30
0.0
0
SEQEND
5
a36
8
Layer1
0
POLYLINE
5
a37
8
Layer1
66
1
10
0.0
20
0.0
30
0.0
70
1
0
VERTEX
5
a38
8
Layer1
10
201.7500
20
41.5000
30
0.0
0
VERTEX
5
a39
8
Layer1
10
202.5500
20
41.5000
30
0.0
0
VERTEX
5
a3a
8
Layer1
10
202.5500
20
53.5000
30
0.0
0
VERTEX
5
a3b
8
Layer1
10
201.7500
20
53.5000
30
0.0
0
VERTEX
5
a3c
8
Layer1
10
201.7500
20
54.5000
30
0.0
0
VERTEX
5
a3d
8
Layer1
10
187.7500
20
54.5000
30
0.0
0
VERTEX
5
a3e
8
Layer1
10
187.7500
20
53.5000
30
0.0
0
VERTEX
5
a3f
8
Layer1
10
186.9500
20
53.5000
30
0.0
0
VERTEX
5
a40
8
Layer1
10
186.9500
20
41.5000
30
0.0
0
VERTEX
5
a41
8
Layer1
10
187.7500
20
41.5000
30
0.0
0
VERTEX
5
a42
8
Layer1
10
187.7500
20
40.5000
30
0.0
0
VERTEX
5
a43
8
Layer1
10
201.7500
20
40.5000
30
0.0
0
VERTEX
5
a44
8
Layer1
10
201.7500
20
41.5000
30
0.0
0
SEQEND
5
a45
8
Layer1
0
POLYLINE
5
a46
8
Layer1
66
1
10
0.0
20
0.0
30
0.0
70
1
0
VERTEX
5
a47
8
Layer1
10
220.7500
20
41.5000
30
0.0
0
VERTEX
5
a48
8
Layer1
10
221.5500
20
41.5000
30
0.0
0
VERTEX
5
a49
8
Layer1
10
221.5500
20
53.5000
30
0.0
0
VERTEX
5
a4a
8
Layer1
10
220.7500
20
53.5000
30
0.0
0
VERTEX
5
a4b
8
Layer1
10
220.7500
20
54.5000
30
0.0
0
VERTEX
5
a4c
8
Layer1
10
206.7500
20
54.5000
30
0.0
0
VERTEX
5
a4d
8
Layer1
10
206.7500
20
53.5000
30
0.0
0
VERTEX
5
a4e
8
Layer1
10
205.9500
20
53.5000
30
0.0
0
VERTEX
5
a4f
8
Layer1
10
205.9500
20
41.5000
30
0.0
0
VERTEX
5
a50
8
Layer1
10
206.7500
20
41.5000
30
0.0
0
VERTEX
5
a51
8
Layer1
10
206.7500
20
40.5000
30
0.0
0
VERTEX
5
a52
8
Layer1
10
220.7500
20
40.5000
30
0.0
0
VERTEX
5
a53
8
Layer1
10
220.7500
20
41.5000
30
0.0
0
SEQEND
5
a54
8
Layer1
0
POLYLINE
5
a55
8
Layer1
66
1
10
0.0
20
0.0
30
0.0
70
1
0
VERTEX
5
a56
8
Layer1
10
239.7500
20
41.5000
30
0.0
0
VERTEX
5
a57
8
Layer1
10
240.5500
20
41.5000
30
0.0
0
VERTEX
5
a58
8
Layer1
10
240.5500
20
53.5000
30
0.0
0
VERTEX
5
a59
8
Layer1
10
239.7500
20
53.5000
30
0.0
0
VERTEX
5
a5a
8
Layer1
10
239.7500
20
54.5000
30
0.0
0
VERTEX
5
a5b
8
Layer1
10
225.7500
20
54.5000
30
0.0
0
VERTEX
5
a5c
8
Layer1
10
225.7500
20
53.5000
30
0.0
0
VERTEX
5
a5d
8
Layer1
10
224.9500
20
53.5000
30
0.0
0
VERTEX
5
a5e
8
Layer1
10
224.9500
20
41.5000
30
0.0
0
VERTEX
5
a5f
8
Layer1
10
225.7500
20
41.5000
30
0.0
0
VERTEX
5
a60
8
Layer1
10
225.7500
20
40.5000
30
0.0
0
VERTEX
5
a61
8
Layer1
10
239.7500
20
40.5000
30
0.0
0
VERTEX
5
a62
8
Layer1
10
239.7500
20
41.5000
30
0.0
0
SEQEND
5
a63
8
Layer1
0
POLYLINE
5
a64
8
Layer1
66
1
10
0.0
20
0.0
30
0.0
70
1
0
VERTEX
5
a65
8
Layer1
10
253.3750
20
40.7300
30
0.0
0
VERTEX
5
a66
8
Layer1
10
255.0500
20
40.7300
30
0.0
0
VERTEX
5
a67
8
Layer1
10
255.0500
20
41.5300
30
0.0
0
VERTEX
5
a68
8
Layer1
10
255.8250
20
41.5300
30
0.0
0
VERTEX
5
a69
8
Layer1
10
255.8250
20
41.5000
30
0.0
0
VERTEX
5
a6a
8
Layer1
10
256.6250
20
41.5000
30
0.0
0
VERTEX
5
a6b
8
Layer1
10
256.6250
20
40.5000
30
0.0
0
VERTEX
5
a6c
8
Layer1
10
270.6250
20
40.5000
30
0.0
0
VERTEX
5
a6d
8
Layer1
10
270.6250
20
41.5000
30
0.0
0
VERTEX
5
a6e
8
Layer1
10
271.4250
20
41.5000
30
0.0
0
VERTEX
5
a6f
8
Layer1
10
271.4250
20
41.5300
30
0.0
0
VERTEX
5
a70
8
Layer1
10
272.2000
20
41.5300
30
0.0
0
VERTEX
5
a71
8
Layer1
10
272.2000
20
40.7300
30
0.0
0
VERTEX
5
a72
8
Layer1
10
273.8750
20
40.7300
30
0.0
0
VERTEX
5
a73
8
Layer1
10
273.8750
20
39.7380
30
0.0
0
VERTEX
5
a74
8
Layer1
10
277.1750
20
39.7380
30
0.0
0
VERTEX
5
a75
8
Layer1
10
277.1750
20
40.7300
30
0.0
0
VERTEX
5
a76
8
Layer1
10
278.8500
20
40.7300
30
0.0
0
VERTEX
5
a77
8
Layer1
10
278.8500
20
47.0000
30
0.0
0
VERTEX
5
a78
8
Layer1
10
279.7250
20
47.0000
30
0.0
0
VERTEX
5
a79
8
Layer1
10
279.7250
20
49.8000
30
0.0
0
VERTEX
5
a7a
8
Layer1
10
278.8500
20
49.8000
30
0.0
0
VERTEX
5
a7b
8
Layer1
10
278.8500
20
53.0300
30
0.0
0
VERTEX
5
a7c
8
Layer1
10
277.1750
20
53.0300
30
0.0
0
VERTEX
5
a7d
8
Layer1
10
277.1750
20
53.7380
30
0.0
0
VERTEX
5
a7e
8
Layer1
10
273.8750
20
53.7380
30
0.0
0
VERTEX
5
a7f
8
Layer1
10
273.8750
20
53.0300
30
0.0
0
VERTEX
5
a80
8
Layer1
10
272.2000
20
53.0300
30
0.0
0
VERTEX
5
a81
8
Layer1
10
272.2000
20
52.2300
30
0.0
0
VERTEX
5
a82
8
Layer1
10
271.4250
20
52.2300
30
0.0
0
VERTEX
5
a83
8
Layer1
10
271.4250
20
53.5000
30
0.0
0
VERTEX
5
a84
8
Layer1
10
270.6250
20
53.5000
30
0.0
0
VERTEX
5
a85
8
Layer1
10
270.6250
20
54.5000
30
0.0
0
VERTEX
5
a86
8
Layer1
10
256.6250
20
54.5000
30
0.0
0
VERTEX
5
a87
8
Layer1
10
256.6250
20
53.5000
30
0.0
0
VERTEX
5
a88
8
Layer1
10
255.8250
20
53.5000
30
0.0
0
VERTEX
5
a89
8
Layer1
10
255.8250
20
52.2300
30
0.0
0
VERTEX
5
a8a
8
Layer1
10
255.0500
20
52.2300
30
0.0
0
VERTEX
5
a8b
8
Layer1
10
255.0500
20
53.0300
30
0.0
0
VERTEX
5
a8c
8
Layer1
10
253.3750
20
53.0300
30
0.0
0
VERTEX
5
a8d
8
Layer1
10
253.3750
20
53.7380
30
0.0
0
VERTEX
5
a8e
8
Layer1
10
250.0750
20
53.7380
30
0.0
0
VERTEX
5
a8f
8
Layer1
10
250.0750
20
53.0300
30
0.0
0
VERTEX
5
a90
8
Layer1
10
248.4000
20
53.0300
30
0.0
0
VERTEX
5
a91
8
Layer1
10
248.4000
20
49.8000
30
0.0
0
VERTEX
5
a92
8
Layer1
10
247.5250
20
49.8000
30
0.0
0
VERTEX
5
a93
8
Layer1
10
247.5250
20
47.0000
30
0.0
0
VERTEX
5
a94
8
Layer1
10
248.4000
20
47.0000
30
0.0
0
VERTEX
5
a95
8
Layer1
10
248.4000
20
40.7300
30
0.0
0
VERTEX
5
a96
8
Layer1
10
250.0750
20
40.7300
30
0.0
0
VERTEX
5
a97
8
Layer1
10
250.0750
20
39.7380
30
0.0
0
VERTEX
5
a98
8
Layer1
10
253.3750
20
39.7380
30
0.0
0
VERTEX
5
a99
8
Layer1
10
253.3750
20
40.7300
30
0.0
0
SEQEND
5
a9a
8
Layer1
0
POLYLINE
5
a9b
8
Layer1
66
1
10
0.0
20
0.0
30
0.0
70
1
0
VERTEX
5
a9c
8
Layer1
10
11.1250
20
21.7300
30
0.0
0
VERTEX
5
a9d
8
Layer1
10
12.8000
20
21.7300
30
0.0
0
VERTEX
5
a9e
8
Layer1
10
12.8000
20
22.5300
30
0.0
0
VERTEX
5
a9f
8
Layer1
10
13.5750
20
22.5300
30
0.0
0
VERTEX
5
aa0
8
Layer1
10
13.5750
20
22.5000
30
0.0
0
VERTEX
5
aa1
8
Layer1
10
14.3750
20
22.5000
30
0.0
0
VERTEX
5
aa2
8
Layer1
10
14.3750
20
21.5000
30
0.0
0
VERTEX
5
aa3
8
Layer1
10
28.3750
20
21.5000
30
0.0
0
VERTEX
5
aa4
8
Layer1
10
28.3750
20
22.5000
30
0.0
0
VERTEX
5
aa5
8
Layer1
10
29.1750
20
22.5000
30
0.0
0
VERTEX
5
aa6
8
Layer1
10
29.1750
20
22.5300
30
0.0
0
VERTEX
5
aa7
8
Layer1
10
29.9500
20
22.5300
30
0.0
0
VERTEX
5
aa8
8
Layer1
10
29.9500
20
21.7300
30
0.0
0
VERTEX
5
aa9
8
Layer1
10
31.6250
20
21.7300
30
0.0
0
VERTEX
5
aaa
8
Layer1
10
31.6250
20
20.7380
30
0.0
0
VERTEX
5
aab
8
Layer1
10
34.9250
20
20.7380
30
0.0
0
VERTEX
5
aac
8
Layer1
10
34.9250
20
21.7300
30
0.0
0
VERTEX
5
aad
8
Layer1
10
36.6000
20
21.7300
30
0.0
0
VERTEX
5
aae
8
Layer1
10
36.6000
20
28.0000
30
0.0
0
VERTEX
5
aaf
8
Layer1
10
37.4750
20
28.0000
30
0.0
0
VERTEX
5
ab0
8
Layer1
10
37.4750
20
30.8000
30
0.0
0
VERTEX
5
ab1
8
Layer1
10
36.6000
20
30.8000
30
0.0
0
VERTEX
5
ab2
8
Layer1
10
36.6000
20
34.0300
30
0.0
0
VERTEX
5
ab3
8
Layer1
10
34.9250
20
34.0300
30
0.0
0
VERTEX
5
ab4
8
Layer1
10
34.9250
20
34.7380
30
0.0
0
VERTEX
5
ab5
8
Layer1
10
31.6250
20
34.7380
30
0.0
0
VERTEX
5
ab6
8
Layer1
10
31.6250
20
34.0300
30
0.0
0
VERTEX
5
ab7
8
Layer1
10
29.9500
20
34.0300
30
0.0
0
VERTEX
5
ab8
8
Layer1
10
29.9500
20
33.2300
30
0.0
0
VERTEX
5
ab9
8
Layer1
10
29.1750
20
33.2300
30
0.0
0
VERTEX
5
aba
8
Layer1
10
29.1750
20
34.5000
30
0.0
0
VERTEX
5
abb
8
Layer1
10
28.3750
20
34.5000
30
0.0
0
VERTEX
5
abc
8
Layer1
10
28.3750
20
35.5000
30
0.0
0
VERTEX
5
abd
8
Layer1
10
14.3750
20
35.5000
30
0.0
0
VERTEX
5
abe
8
Layer1
10
14.3750
20
34.5000
30
0.0
0
VERTEX
5
abf
8
Layer1
10
13.5750
20
34.5000
30
0.0
0
VERTEX
5
ac0
8
Layer1
10
13.5750
20
33.2300
30
0.0
0
VERTEX
5
ac1
8
Layer1
10
12.8000
20
33.2300
30
0.0
0
VERTEX
5
ac2
8
Layer1
10
12.8000
20
34.0300
30
0.0
0
VERTEX
5
ac3
8
Layer1
10
11.1250
20
34.0300
30
0.0
0
VERTEX
5
ac4
8
Layer1
10
11.1250
20
34.7380
30
0.0
0
VERTEX
5
ac5
8
Layer1
10
7.8250
20
34.7380
30
0.0
0
VERTEX
5
ac6
8
Layer1
10
7.8250
20
34.0300
30
0.0
0
VERTEX
5
ac7
8
Layer1
10
6.1500
20
34.0300
30
0.0
0
VERTEX
5
ac8
8
Layer1
10
6.1500
20
30.8000
30
0.0
0
VERTEX
5
ac9
8
Layer1
10
5.2750
20
30.8000
30
0.0
0
VERTEX
5
aca
8
Layer1
10
5.2750
20
28.0000
30
0.0
0
VERTEX
5
acb
8
Layer1
10
6.1500
20
28.0000
30
0.0
0
VERTEX
5
acc
8
Layer1
10
6.1500
20
21.7300
30
0.0
0
VERTEX
5
acd
8
Layer1
10
7.8250
20
21.7300
30
0.0
0
VERTEX
5
ace
8
Layer1
10
7.8250
20
20.7380
30
0.0
0
VERTEX
5
acf
8
Layer1
10
11.1250
20
20.7380
30
0.0
0
VERTEX
5
ad0
8
Layer1
10
11.1250
20
21.7300
30
0.0
0
SEQEND
5
ad1
8
Layer1
0
POLYLINE
5
ad2
8
Layer1
66
1
10
0.0
20
0.0
30
0.0
70
1
0
VERTEX
5
ad3
8
Layer1
10
59.2500
20
22.5000
30
0.0
0
VERTEX
5
ad4
8
Layer1
10
60.0500
20
22.5000
30
0.0
0
VERTEX
5
ad5
8
Layer1
10
60.0500
20
34.5000
30
0.0
0
VERTEX
5
ad6
8
Layer1
10
59.2500
20
34.5000
30
0.0
0
VERTEX
5
ad7
8
Layer1
10
59.2500
20
35.5000
30
0.0
0
VERTEX
5
ad8
8
Layer1
10
45.2500
20
35.5000
30
0.0
0
VERTEX
5
ad9
8
Layer1
10
45.2500
20
34.5000
30
0.0
0
VERTEX
5
ada
8
Layer1
10
44.4500
20
34.5000
30
0.0
0
VERTEX
5
adb
8
Layer1
10
44.4500
20
22.5000
30
0.0
0
VERTEX
5
adc
8
Layer1
10
45.2500
20
22.5000
30
0.0
0
VERTEX
5
add
8
Layer1
10
45.2500
20
21.5000
30
0.0
0
VERTEX
5
ade
8
Layer1
10
59.2500
20
21.5000
30
0.0
0
VERTEX
5
adf
8
Layer1
10
59.2500
20
22.5000
30
0.0
0
SEQEND
5
ae0
8
Layer1
0
POLYLINE
5
ae1
8
Layer1
66
1
10
0.0
20
0.0
30
0.0
70
1
0
VERTEX
5
ae2
8
Layer1
10
78.2500
20
22.5000
30
0.0
0
VERTEX
5
ae3
8
Layer1
10
79.0500
20
22.5000
30
0.0
0
VERTEX
5
ae4
8
Layer1
10
79.0500
20
34.5000
30
0.0
0
VERTEX
5
ae5
8
Layer1
10
78.2500
20
34.5000
30
0.0
0
VERTEX
5
ae6
8
Layer1
10
78.2500
20
35.5000
30
0.0
0
VERTEX
5
ae7
8
Layer1
10
64.2500
20
35.5000
30
0.0
0
VERTEX
5
ae8
8
Layer1
10
64.2500
20
34.5000
30
0.0
0
VERTEX
5
ae9
8
Layer1
10
63.4500
20
34.5000
30
0.0
0
VERTEX
5
aea
8
Layer1
10
63.4500
20
22.5000
30
0.0
0
VERTEX
5
aeb
8
Layer1
10
64.2500
20
22.5000
30
0.0
0
VERTEX
5
aec
8
Layer1
10
64.2500
20
21.5000
30
0.0
0
VERTEX
5
aed
8
Layer1
10
78.2500
20
21.5000
30
0.0
0
VERTEX
5
aee
8
Layer1
10
78.2500
20
22.5000
30
0.0
0
SEQEND
5
aef
8
Layer1
0
POLYLINE
5
af0
8
Layer1
66
1
10
0.0
20
0.0
30
0.0
70
1
0
VERTEX
5
af1
8
Layer1
10
97.2500
20
22.5000
30
0.0
0
VERTEX
5
af2
8
Layer1
10
98.0500
20
22.5000
30
0.0
0
VERTEX
5
af3
8
Layer1
10
98.0500
20
34.5000
30
0.0
0
VERTEX
5
af4
8
Layer1
10
97.2500
20
34.5000
30
0.0
0
VERTEX
5
af5
8
Layer1
10
97.2500
20
35.5000
30
0.0
0
VERTEX
5
af6
8
Layer1
10
83.2500
20
35.5000
30
0.0
0
VERTEX
5
af7
8
Layer1
10
83.2500
20
34.5000
30
0.0
0
VERTEX
5
af8
8
Layer1
10
82.4500
20
34.5000
30
0.0
0
VERTEX
5
af9
8
Layer1
10
82.4500
20
22.5000
30
0.0
0
VERTEX
5
afa
8
Layer1
10
83.2500
20
22.5000
30
0.0
0
VERTEX
5
afb
8
Layer1
10
83.2500
20
21.5000
30
0.0
0
VERTEX
5
afc
8
Layer1
10
97.2500
20
21.5000
30
0.0
0
VERTEX
5
afd
8
Layer1
10
97.2500
20
22.5000
30
0.0
0
SEQEND
5
afe
8
Layer1
0
POLYLINE
5
aff
8
Layer1
66
1
10
0.0
20
0.0
30
0.0
70
1
0
VERTEX
5
b00
8
Layer1
10
116.2500
20
22.5000
30
0.0
0
VERTEX
5
b01
8
Layer1
10
117.0500
20
22.5000
30
0.0
0
VERTEX
5
b02
8
Layer1
10
117.0500
20
34.5000
30
0.0
0
VERTEX
5
b03
8
Layer1
10
116.2500
20
34.5000
30
0.0
0
VERTEX
5
b04
8
Layer1
10
116.2500
20
35.5000
30
0.0
0
VERTEX
5
b05
8
Layer1
10
102.2500
20
35.5000
30
0.0
0
VERTEX
5
b06
8
Layer1
10
102.2500
20
34.5000
30
0.0
0
VERTEX
5
b07
8
Layer1
10
101.4500
20
34.5000
30
0.0
0
VERTEX
5
b08
8
Layer1
10
101.4500
20
22.5000
30
0.0
0
VERTEX
5
b09
8
Layer1
10
102.2500
20
22.5000
30
0.0
0
VERTEX
5
b0a
8
Layer1
10
102.2500
20
21.5000
30
0.0
0
VERTEX
5
b0b
8
Layer1
10
116.2500
20
21.5000
30
0.0
0
VERTEX
5
b0c
8
Layer1
10
116.2500
20
22.5000
30
0.0
0
SEQEND
5
b0d
8
Layer1
0
POLYLINE
5
b0e
8
Layer1
66
1
10
0.0
20
0.0
30
0.0
70
1
0
VERTEX
5
b0f
8
Layer1
10
135.2500
20
22.5000
30
0.0
0
VERTEX
5
b10
8
Layer1
10
136.0500
20
22.5000
30
0.0
0
VERTEX
5
b11
8
Layer1
10
136.0500
20
34.5000
30
0.0
0
VERTEX
5
b12
8
Layer1
10
135.2500
20
34.5000
30
0.0
0
VERTEX
5
b13
8
Layer1
10
135.2500
20
35.5000
30
0.0
0
VERTEX
5
b14
8
Layer1
10
121.2500
20
35.5000
30
0.0
0
VERTEX
5
b15
8
Layer1
10
121.2500
20
34.5000
30
0.0
0
VERTEX
5
b16
8
Layer1
10
120.4500
20
34.5000
30
0.0
0
VERTEX
5
b17
8
Layer1
10
120.4500
20
22.5000
30
0.0
0
VERTEX
5
b18
8
Layer1
10
121.2500
20
22.5000
30
0.0
0
VERTEX
5
b19
8
Layer1
10
121.2500
20
21.5000
30
0.0
0
VERTEX
5
b1a
8
Layer1
10
135.2500
20
21.5000
30
0.0
0
VERTEX
5
b1b
8
Layer1
10
135.2500
20
22.5000
30
0.0
0
SEQEND
5
b1c
8
Layer1
0
POLYLINE
5
b1d
8
Layer1
66
1
10
0.0
20
0.0
30
0.0
70
1
0
VERTEX
5
b1e
8
Layer1
10
154.2500
20
22.5000
30
0.0
0
VERTEX
5
b1f
8
Layer1
10
155.0500
20
22.5000
30
0.0
0
VERTEX
5
b20
8
Layer1
10
155.0500
20
34.5000
30
0.0
0
VERTEX
5
b21
8
Layer1
10
154.2500
20
34.5000
30
0.0
0
VERTEX
5
b22
8
Layer1
10
154.2500
20
35.5000
30
0.0
0
VERTEX
5
b23
8
Layer1
10
140.2500
20
35.5000
30
0.0
0
VERTEX
5
b24
8
Layer1
10
140.2500
20
34.5000
30
0.0
0
VERTEX
5
b25
8
Layer1
10
139.4500
20
34.5000
30
0.0
0
VERTEX
5
b26
8
Layer1
10
139.4500
20
22.5000
30
0.0
0
VERTEX
5
b27
8
Layer1
10
140.2500
20
22.5000
30
0.0
0
VERTEX
5
b28
8
Layer1
10
140.2500
20
21.5000
30
0.0
0
VERTEX
5
b29
8
Layer1
10
154.2500
20
21.5000
30
0.0
0
VERTEX
5
b2a
8
Layer1
10
154.2500
20
22.5000
30
0.0
0
SEQEND
5
b2b
8
Layer1
0
POLYLINE
5
b2c
8
Layer1
66
1
10
0.0
20
0.0
30
0.0
70
1
0
VERTEX
5
b2d
8
Layer1
10
173.2500
20
22.5000
30
0.0
0
VERTEX
5
b2e
8
Layer1
10
174.0500
20
22.5000
30
0.0
0
VERTEX
5
b2f
8
Layer1
10
174.0500
20
34.5000
30
0.0
0
VERTEX
5
b30
8
Layer1
10
173.2500
20
34.5000
30
0.0
0
VERTEX
5
b31
8
Layer1
10
173.2500
20
35.5000
30
0.0
0
VERTEX
5
b32
8
Layer1
10
159.2500
20
35.5000
30
0.0
0
VERTEX
5
b33
8
Layer1
10
159.2500
20
34.5000
30
0.0
0
VERTEX
5
b34
8
Layer1
10
158.4500
20
34.5000
30
0.0
0
VERTEX
5
b35
8
Layer1
10
158.4500
20
22.5000
30
0.0
0
VERTEX
5
b36
8
Layer1
10
159.2500
20
22.5000
30
0.0
0
VERTEX
5
b37
8
Layer1
10
159.2500
20
21.5000
30
0.0
0
VERTEX
5
b38
8
Layer1
10
173.2500
20
21.5000
30
0.0
0
VERTEX
5
b39
8
Layer1
10
173.2500
20
22.5000
30
0.0
0
SEQEND
5
b3a
8
Layer1
0
POLYLINE
5
b3b
8
Layer1
66
1
10
0.0
20
0.0
30
0.0
70
1
0
VERTEX
5
b3c
8
Layer1
10
192.2500
20
22.5000
30
0.0
0
VERTEX
5
b3d
8
Layer1
10
193.0500
20
22.5000
30
0.0
0
VERTEX
5
b3e
8
Layer1
10
193.0500
20
34.5000
30
0.0
0
VERTEX
5
b3f
8
Layer1
10
192.2500
20
34.5000
30
0.0
0
VERTEX
5
b40
8
Layer1
10
192.2500
20
35.5000
30
0.0
0
VERTEX
5
b41
8
Layer1
10
178.2500
20
35.5000
30
0.0
0
VERTEX
5
b42
8
Layer1
10
178.2500
20
34.5000
30
0.0
0
VERTEX
5
b43
8
Layer1
10
177.4500
20
34.5000
30
0.0
0
VERTEX
5
b44
8
Layer1
10
177.4500
20
22.5000
30
0.0
0
VERTEX
5
b45
8
Layer1
10
178.2500
20
22.5000
30
0.0
0
VERTEX
5
b46
8
Layer1
10
178.2500
20
21.5000
30
0.0
0
VERTEX
5
b47
8
Layer1
10
192.2500
20
21.5000
30
0.0
0
VERTEX
5
b48
8
Layer1
10
192.2500
20
22.5000
30
0.0
0
SEQEND
5
b49
8
Layer1
0
POLYLINE
5
b4a
8
Layer1
66
1
10
0.0
20
0.0
30
0.0
70
1
0
VERTEX
5
b4b
8
Layer1
10
211.2500
20
22.5000
30
0.0
0
VERTEX
5
b4c
8
Layer1
10
212.0500
20
22.5000
30
0.0
0
VERTEX
5
b4d
8
Layer1
10
212.0500
20
34.5000
30
0.0
0
VERTEX
5
b4e
8
Layer1
10
211.2500
20
34.5000
30
0.0
0
VERTEX
5
b4f
8
Layer1
10
211.2500
20
35.5000
30
0.0
0
VERTEX
5
b50
8
Layer1
10
197.2500
20
35.5000
30
0.0
0
VERTEX
5
b51
8
Layer1
10
197.2500
20
34.5000
30
0.0
0
VERTEX
5
b52
8
Layer1
10
196.4500
20
34.5000
30
0.0
0
VERTEX
5
b53
8
Layer1
10
196.4500
20
22.5000
30
0.0
0
VERTEX
5
b54
8
Layer1
10
197.2500
20
22.5000
30
0.0
0
VERTEX
5
b55
8
Layer1
10
197.2500
20
21.5000
30
0.0
0
VERTEX
5
b56
8
Layer1
10
211.2500
20
21.5000
30
0.0
0
VERTEX
5
b57
8
Layer1
10
211.2500
20
22.5000
30
0.0
0
SEQEND
5
b58
8
Layer1
0
POLYLINE
5
b59
8
Layer1
66
1
10
0.0
20
0.0
30
0.0
70
1
0
VERTEX
5
b5a
8
Layer1
10
230.2500
20
22.5000
30
0.0
0
VERTEX
5
b5b
8
Layer1
10
231.0500
20
22.5000
30
0.0
0
VERTEX
5
b5c
8
Layer1
10
231.0500
20
34.5000
30
0.0
0
VERTEX
5
b5d
8
Layer1
10
230.2500
20
34.5000
30
0.0
0
VERTEX
5
b5e
8
Layer1
10
230.2500
20
35.5000
30
0.0
0
VERTEX
5
b5f
8
Layer1
10
216.2500
20
35.5000
30
0.0
0
VERTEX
5
b60
8
Layer1
10
216.2500
20
34.5000
30
0.0
0
VERTEX
5
b61
8
Layer1
10
215.4500
20
34.5000
30
0.0
0
VERTEX
5
b62
8
Layer1
10
215.4500
20
22.5000
30
0.0
0
VERTEX
5
b63
8
Layer1
10
216.2500
20
22.5000
30
0.0
0
VERTEX
5
b64
8
Layer1
10
216.2500
20
21.5000
30
0.0
0
VERTEX
5
b65
8
Layer1
10
230.2500
20
21.5000
30
0.0
0
VERTEX
5
b66
8
Layer1
10
230.2500
20
22.5000
30
0.0
0
SEQEND
5
b67
8
Layer1
0
POLYLINE
5
b68
8
Layer1
66
1
10
0.0
20
0.0
30
0.0
70
1
0
VERTEX
5
b69
8
Layer1
10
248.6250
20
21.7300
30
0.0
0
VERTEX
5
b6a
8
Layer1
10
250.3000
20
21.7300
30
0.0
0
VERTEX
5
b6b
8
Layer1
10
250.3000
20
22.5300
30
0.0
0
VERTEX
5
b6c
8
Layer1
10
251.0750
20
22.5300
30
0.0
0
VERTEX
5
b6d
8
Layer1
10
251.0750
20
22.5000
30
0.0
0
VERTEX
5
b6e
8
Layer1
10
251.8750
20
22.5000
30
0.0
0
VERTEX
5
b6f
8
Layer1
10
251.8750
20
21.5000
30
0.0
0
VERTEX
5
b70
8
Layer1
10
265.8750
20
21.5000
30
0.0
0
VERTEX
5
b71
8
Layer1
10
265.8750
20
22.5000
30
0.0
0
VERTEX
5
b72
8
Layer1
10
266.6750
20
22.5000
30
0.0
0
VERTEX
5
b73
8
Layer1
10
266.6750
20
22.5300
30
0.0
0
VERTEX
5
b74
8
Layer1
10
267.4500
20
22.5300
30
0.0
0
VERTEX
5
b75
8
Layer1
10
267.4500
20
21.7300
30
0.0
0
VERTEX
5
b76
8
Layer1
10
269.1250
20
21.7300
30
0.0
0
VERTEX
5
b77
8
Layer1
10
269.1250
20
20.7380
30
0.0
0
VERTEX
5
b78
8
Layer1
10
272.4250
20
20.7380
30
0.0
0
VERTEX
5
b79
8
Layer1
10
272.4250
20
21.7300
30
0.0
0
VERTEX
5
b7a
8
Layer1
10
274.1000
20
21.7300
30
0.0
0
VERTEX
5
b7b
8
Layer1
10
274.1000
20
28.0000
30
0.0
0
VERTEX
5
b7c
8
Layer1
10
274.9750
20
28.0000
30
0.0
0
VERTEX
5
b7d
8
Layer1
10
274.9750
20
30.8000
30
0.0
0
VERTEX
5
b7e
8
Layer1
10
274.1000
20
30.8000
30
0.0
0
VERTEX
5
b7f
8
Layer1
10
274.1000
20
34.0300
30
0.0
0
VERTEX
5
b80
8
Layer1
10
272.4250
20
34.0300
30
0.0
0
VERTEX
5
b81
8
Layer1
10
272.4250
20
34.7380
30
0.0
0
VERTEX
5
b82
8
Layer1
10
269.1250
20
34.7380
30
0.0
0
VERTEX
5
b83
8
Layer1
10
269.1250
20
34.0300
30
0.0
0
VERTEX
5
b84
8
Layer1
10
267.4500
20
34.0300
30
0.0
0
VERTEX
5
b85
8
Layer1
10
267.4500
20
33.2300
30
0.0
0
VERTEX
5
b86
8
Layer1
10
266.6750
20
33.2300
30
0.0
0
VERTEX
5
b87
8
Layer1
10
266.6750
20
34.5000
30
0.0
0
VERTEX
5
b88
8
Layer1
10
265.8750
20
34.5000
30
0.0
0
VERTEX
5
b89
8
Layer1
10
265.8750
20
35.5000
30
0.0
0
VERTEX
5
b8a
8
Layer1
10
251.8750
20
35.5000
30
0.0
0
VERTEX
5
b8b
8
Layer1
10
251.8750
20
34.5000
30
0.0
0
VERTEX
5
b8c
8
Layer1
10
251.0750
20
34.5000
30
0.0
0
VERTEX
5
b8d
8
Layer1
10
251.0750
20
33.2300
30
0.0
0
VERTEX
5
b8e
8
Layer1
10
250.3000
20
33.2300
30
0.0
0
VERTEX
5
b8f
8
Layer1
10
250.3000
20
34.0300
30
0.0
0
VERTEX
5
b90
8
Layer1
10
248.6250
20
34.0300
30
0.0
0
VERTEX
5
b91
8
Layer1
10
248.6250
20
34.7380
30
0.0
0
VERTEX
5
b92
8
Layer1
10
245.3250
20
34.7380
30
0.0
0
VERTEX
5
b93
8
Layer1
10
245.3250
20
34.0300
30
0.0
0
VERTEX
5
b94
8
Layer1
10
243.6500
20
34.0300
30
0.0
0
VERTEX
5
b95
8
Layer1
10
243.6500
20
30.8000
30
0.0
0
VERTEX
5
b96
8
Layer1
10
242.7750
20
30.8000
30
0.0
0
VERTEX
5
b97
8
Layer1
10
242.7750
20
28.0000
30
0.0
0
VERTEX
5
b98
8
Layer1
10
243.6500
20
28.0000
30
0.0
0
VERTEX
5
b99
8
Layer1
10
243.6500
20
21.7300
30
0.0
0
VERTEX
5
b9a
8
Layer1
10
245.3250
20
21.7300
30
0.0
0
VERTEX
5
b9b
8
Layer1
10
245.3250
20
20.7380
30
0.0
0
VERTEX
5
b9c
8
Layer1
10
248.6250
20
20.7380
30
0.0
0
VERTEX
5
b9d
8
Layer1
10
248.6250
20
21.7300
30
0.0
0
SEQEND
5
b9e
8
Layer1
0
POLYLINE
5
b9f
8
Layer1
66
1
10
0.0
20
0.0
30
0.0
70
1
0
VERTEX
5
ba0
8
Layer1
10
323.3500
20
22.5000
30
0.0
0
VERTEX
5
ba1
8
Layer1
10
324.1500
20
22.5000
30
0.0
0
VERTEX
5
ba2
8
Layer1
10
324.1500
20
34.5000
30
0.0
0
VERTEX
5
ba3
8
Layer1
10
323.3500
20
34.5000
30
0.0
0
VERTEX
5
ba4
8
Layer1
10
323.3500
20
35.5000
30
0.0
0
VERTEX
5
ba5
8
Layer1
10
309.3500
20
35.5000
30
0.0
0
VERTEX
5
ba6
8
Layer1
10
309.3500
20
34.5000
30
0.0
0
VERTEX
5
ba7
8
Layer1
10
308.5500
20
34.5000
30
0.0
0
VERTEX
5
ba8
8
Layer1
10
308.5500
20
22.5000
30
0.0
0
VERTEX
5
ba9
8
Layer1
10
309.3500
20
22.5000
30
0.0
0
VERTEX
5
baa
8
Layer1
10
309.3500
20
21.5000
30
0.0
0
VERTEX
5
bab
8
Layer1
10
323.3500
20
21.5000
30
0.0
0
VERTEX
5
bac
8
Layer1
10
323.3500
20
22.5000
30
0.0
0
SEQEND
5
bad
8
Layer1
0
POLYLINE
5
bae
8
Layer1
66
1
10
0.0
20
0.0
30
0.0
70
1
0
VERTEX
5
baf
8
Layer1
10
21.2500
20
3.5000
30
0.0
0
VERTEX
5
bb0
8
Layer1
10
22.0500
20
3.5000
30
0.0
0
VERTEX
5
bb1
8
Layer1
10
22.0500
20
15.5000
30
0.0
0
VERTEX
5
bb2
8
Layer1
10
21.2500
20
15.5000
30
0.0
0
VERTEX
5
bb3
8
Layer1
10
21.2500
20
16.5000
30
0.0
0
VERTEX
5
bb4
8
Layer1
10
7.2500
20
16.5000
30
0.0
0
VERTEX
5
bb5
8
Layer1
10
7.2500
20
15.5000
30
0.0
0
VERTEX
5
bb6
8
Layer1
10
6.4500
20
15.5000
30
0.0
0
VERTEX
5
bb7
8
Layer1
10
6.4500
20
3.5000
30
0.0
0
VERTEX
5
bb8
8
Layer1
10
7.2500
20
3.5000
30
0.0
0
VERTEX
5
bb9
8
Layer1
10
7.2500
20
2.5000
30
0.0
0
VERTEX
5
bba
8
Layer1
10
21.2500
20
2.5000
30
0.0
0
VERTEX
5
bbb
8
Layer1
10
21.2500
20
3.5000
30
0.0
0
SEQEND
5
bbc
8
Layer1
0
POLYLINE
5
bbd
8
Layer1
66
1
10
0.0
20
0.0
30
0.0
70
1
0
VERTEX
5
bbe
8
Layer1
10
47.3750
20
3.5000
30
0.0
0
VERTEX
5
bbf
8
Layer1
10
48.1750
20
3.5000
30
0.0
0
VERTEX
5
bc0
8
Layer1
10
48.1750
20
15.5000
30
0.0
0
VERTEX
5
bc1
8
Layer1
10
47.3750
20
15.5000
30
0.0
0
VERTEX
5
bc2
8
Layer1
10
47.3750
20
16.5000
30
0.0
0
VERTEX
5
bc3
8
Layer1
10
33.3750
20
16.5000
30
0.0
0
VERTEX
5
bc4
8
Layer1
10
33.3750
20
15.5000
30
0.0
0
VERTEX
5
bc5
8
Layer1
10
32.5750
20
15.5000
30
0.0
0
VERTEX
5
bc6
8
Layer1
10
32.5750
20
3.5000
30
0.0
0
VERTEX
5
bc7
8
Layer1
10
33.3750
20
3.5000
30
0.0
0
VERTEX
5
bc8
8
Layer1
10
33.3750
20
2.5000
30
0.0
0
VERTEX
5
bc9
8
Layer1
10
47.3750
20
2.5000
30
0.0
0
VERTEX
5
bca
8
Layer1
10
47.3750
20
3.5000
30
0.0
0
SEQEND
5
bcb
8
Layer1
0
POLYLINE
5
bcc
8
Layer1
66
1
10
0.0
20
0.0
30
0.0
70
1
0
VERTEX
5
bcd
8
Layer1
10
71.1250
20
3.5000
30
0.0
0
VERTEX
5
bce
8
Layer1
10
71.9250
20
3.5000
30
0.0
0
VERTEX
5
bcf
8
Layer1
10
71.9250
20
15.5000
30
0.0
0
VERTEX
5
bd0
8
Layer1
10
71.1250
20
15.5000
30
0.0
0
VERTEX
5
bd1
8
Layer1
10
71.1250
20
16.5000
30
0.0
0
VERTEX
5
bd2
8
Layer1
10
57.1250
20
16.5000
30
0.0
0
VERTEX
5
bd3
8
Layer1
10
57.1250
20
15.5000
30
0.0
0
VERTEX
5
bd4
8
Layer1
10
56.3250
20
15.5000
30
0.0
0
VERTEX
5
bd5
8
Layer1
10
56.3250
20
3.5000
30
0.0
0
VERTEX
5
bd6
8
Layer1
10
57.1250
20
3.5000
30
0.0
0
VERTEX
5
bd7
8
Layer1
10
57.1250
20
2.5000
30
0.0
0
VERTEX
5
bd8
8
Layer1
10
71.1250
20
2.5000
30
0.0
0
VERTEX
5
bd9
8
Layer1
10
71.1250
20
3.5000
30
0.0
0
SEQEND
5
bda
8
Layer1
0
POLYLINE
5
bdb
8
Layer1
66
1
10
0.0
20
0.0
30
0.0
70
1
0
VERTEX
5
bdc
8
Layer1
10
87.0250
20
2.7300
30
0.0
0
VERTEX
5
bdd
8
Layer1
10
88.7000
20
2.7300
30
0.0
0
VERTEX
5
bde
8
Layer1
10
88.7000
20
7.2000
30
0.0
0
VERTEX
5
bdf
8
Layer1
10
127.5750
20
7.2000
30
0.0
0
VERTEX
5
be0
8
Layer1
10
127.5750
20
3.5000
30
0.0
0
VERTEX
5
be1
8
Layer1
10
128.3750
20
3.5000
30
0.0
0
VERTEX
5
be2
8
Layer1
10
128.3750
20
2.5000
30
0.0
0
VERTEX
5
be3
8
Layer1
10
142.3750
20
2.5000
30
0.0
0
VERTEX
5
be4
8
Layer1
10
142.3750
20
3.5000
30
0.0
0
VERTEX
5
be5
8
Layer1
10
143.1750
20
3.5000
30
0.0
0
VERTEX
5
be6
8
Layer1
10
143.1750
20
7.2000
30
0.0
0
VERTEX
5
be7
8
Layer1
10
182.0500
20
7.2000
30
0.0
0
VERTEX
5
be8
8
Layer1
10
182.0500
20
2.7300
30
0.0
0
VERTEX
5
be9
8
Layer1
10
183.7250
20
2.7300
30
0.0
0
VERTEX
5
bea
8
Layer1
10
183.7250
20
1.7380
30
0.0
0
VERTEX
5
beb
8
Layer1
10
187.0250
20
1.7380
30
0.0
0
VERTEX
5
bec
8
Layer1
10
187.0250
20
2.7300
30
0.0
0
VERTEX
5
bed
8
Layer1
10
188.7000
20
2.7300
30
0.0
0
VERTEX
5
bee
8
Layer1
10
188.7000
20
9.0000
30
0.0
0
VERTEX
5
bef
8
Layer1
10
189.6000
20
9.0000
30
0.0
0
VERTEX
5
bf0
8
Layer1
10
189.6000
20
11.8000
30
0.0
0
VERTEX
5
bf1
8
Layer1
10
188.7000
20
11.8000
30
0.0
0
VERTEX
5
bf2
8
Layer1
10
188.7000
20
15.0300
30
0.0
0
VERTEX
5
bf3
8
Layer1
10
187.0250
20
15.0300
30
0.0
0
VERTEX
5
bf4
8
Layer1
10
187.0250
20
15.7380
30
0.0
0
VERTEX
5
bf5
8
Layer1
10
183.7250
20
15.7380
30
0.0
0
VERTEX
5
bf6
8
Layer1
10
183.7250
20
15.0300
30
0.0
0
VERTEX
5
bf7
8
Layer1
10
182.0500
20
15.0300
30
0.0
0
VERTEX
5
bf8
8
Layer1
10
182.0500
20
11.8000
30
0.0
0
VERTEX
5
bf9
8
Layer1
10
143.1750
20
11.8000
30
0.0
0
VERTEX
5
bfa
8
Layer1
10
143.1750
20
15.5000
30
0.0
0
VERTEX
5
bfb
8
Layer1
10
142.3750
20
15.5000
30
0.0
0
VERTEX
5
bfc
8
Layer1
10
142.3750
20
16.5000
30
0.0
0
VERTEX
5
bfd
8
Layer1
10
128.3750
20
16.5000
30
0.0
0
VERTEX
5
bfe
8
Layer1
10
128.3750
20
15.5000
30
0.0
0
VERTEX
5
bff
8
Layer1
10
127.5750
20
15.5000
30
0.0
0
VERTEX
5
c00
8
Layer1
10
127.5750
20
11.8000
30
0.0
0
VERTEX
5
c01
8
Layer1
10
88.7000
20
11.8000
30
0.0
0
VERTEX
5
c02
8
Layer1
10
88.7000
20
15.0300
30
0.0
0
VERTEX
5
c03
8
Layer1
10
87.0250
20
15.0300
30
0.0
0
VERTEX
5
c04
8
Layer1
10
87.0250
20
15.7380
30
0.0
0
VERTEX
5
c05
8
Layer1
10
83.7250
20
15.7380
30
0.0
0
VERTEX
5
c06
8
Layer1
10
83.7250
20
15.0300
30
0.0
0
VERTEX
5
c07
8
Layer1
10
82.0500
20
15.0300
30
0.0
0
VERTEX
5
c08
8
Layer1
10
82.0500
20
11.8000
30
0.0
0
VERTEX
5
c09
8
Layer1
10
81.1500
20
11.8000
30
0.0
0
VERTEX
5
c0a
8
Layer1
10
81.1500
20
9.0000
30
0.0
0
VERTEX
5
c0b
8
Layer1
10
82.0500
20
9.0000
30
0.0
0
VERTEX
5
c0c
8
Layer1
10
82.0500
20
2.7300
30
0.0
0
VERTEX
5
c0d
8
Layer1
10
83.7250
20
2.7300
30
0.0
0
VERTEX
5
c0e
8
Layer1
10
83.7250
20
1.7380
30
0.0
0
VERTEX
5
c0f
8
Layer1
10
87.0250
20
1.7380
30
0.0
0
VERTEX
5
c10
8
Layer1
10
87.0250
20
2.7300
30
0.0
0
SEQEND
5
c11
8
Layer1
0
POLYLINE
5
c12
8
Layer1
66
1
10
0.0
20
0.0
30
0.0
70
1
0
VERTEX
5
c13
8
Layer1
10
213.6250
20
3.5000
30
0.0
0
VERTEX
5
c14
8
Layer1
10
214.4250
20
3.5000
30
0.0
0
VERTEX
5
c15
8
Layer1
10
214.4250
20
15.5000
30
0.0
0
VERTEX
5
c16
8
Layer1
10
213.6250
20
15.5000
30
0.0
0
VERTEX
5
c17
8
Layer1
10
213.6250
20
16.5000
30
0.0
0
VERTEX
5
c18
8
Layer1
10
199.6250
20
16.5000
30
0.0
0
VERTEX
5
c19
8
Layer1
10
199.6250
20
15.5000
30
0.0
0
VERTEX
5
c1a
8
Layer1
10
198.8250
20
15.5000
30
0.0
0
VERTEX
5
c1b
8
Layer1
10
198.8250
20
3.5000
30
0.0
0
VERTEX
5
c1c
8
Layer1
10
199.6250
20
3.5000
30
0.0
0
VERTEX
5
c1d
8
Layer1
10
199.6250
20
2.5000
30
0.0
0
VERTEX
5
c1e
8
Layer1
10
213.6250
20
2.5000
30
0.0
0
VERTEX
5
c1f
8
Layer1
10
213.6250
20
3.5000
30
0.0
0
SEQEND
5
c20
8
Layer1
0
POLYLINE
5
c21
8
Layer1
66
1
10
0.0
20
0.0
30
0.0
70
1
0
VERTEX
5
c22
8
Layer1
10
237.3750
20
3.5000
30
0.0
0
VERTEX
5
c23
8
Layer1
10
238.1750
20
3.5000
30
0.0
0
VERTEX
5
c24
8
Layer1
10
238.1750
20
15.5000
30
0.0
0
VERTEX
5
c25
8
Layer1
10
237.3750
20
15.5000
30
0.0
0
VERTEX
5
c26
8
Layer1
10
237.3750
20
16.5000
30
0.0
0
VERTEX
5
c27
8
Layer1
10
223.3750
20
16.5000
30
0.0
0
VERTEX
5
c28
8
Layer1
10
223.3750
20
15.5000
30
0.0
0
VERTEX
5
c29
8
Layer1
10
222.5750
20
15.5000
30
0.0
0
VERTEX
5
c2a
8
Layer1
10
222.5750
20
3.5000
30
0.0
0
VERTEX
5
c2b
8
Layer1
10
223.3750
20
3.5000
30
0.0
0
VERTEX
5
c2c
8
Layer1
10
223.3750
20
2.5000
30
0.0
0
VERTEX
5
c2d
8
Layer1
10
237.3750
20
2.5000
30
0.0
0
VERTEX
5
c2e
8
Layer1
10
237.3750
20
3.5000
30
0.0
0
SEQEND
5
c2f
8
Layer1
0
POLYLINE
5
c30
8
Layer1
66
1
10
0.0
20
0.0
30
0.0
70
1
0
VERTEX
5
c31
8
Layer1
10
258.7500
20
3.5000
30
0.0
0
VERTEX
5
c32
8
Layer1
10
259.5500
20
3.5000
30
0.0
0
VERTEX
5
c33
8
Layer1
10
259.5500
20
15.5000
30
0.0
0
VERTEX
5
c34
8
Layer1
10
258.7500
20
15.5000
30
0.0
0
VERTEX
5
c35
8
Layer1
10
258.7500
20
16.5000
30
0.0
0
VERTEX
5
c36
8
Layer1
10
244.7500
20
16.5000
30
0.0
0
VERTEX
5
c37
8
Layer1
10
244.7500
20
15.5000
30
0.0
0
VERTEX
5
c38
8
Layer1
10
243.9500
20
15.5000
30
0.0
0
VERTEX
5
c39
8
Layer1
10
243.9500
20
3.5000
30
0.0
0
VERTEX
5
c3a
8
Layer1
10
244.7500
20
3.5000
30
0.0
0
VERTEX
5
c3b
8
Layer1
10
244.7500
20
2.5000
30
0.0
0
VERTEX
5
c3c
8
Layer1
10
258.7500
20
2.5000
30
0.0
0
VERTEX
5
c3d
8
Layer1
10
258.7500
20
3.5000
30
0.0
0
SEQEND
5
c3e
8
Layer1
0
POLYLINE
5
c3f
8
Layer1
66
1
10
0.0
20
0.0
30
0.0
70
1
0
VERTEX
5
c40
8
Layer1
10
280.1250
20
3.5000
30
0.0
0
VERTEX
5
c41
8
Layer1
10
280.9250
20
3.5000
30
0.0
0
VERTEX
5
c42
8
Layer1
10
280.9250
20
15.5000
30
0.0
0
VERTEX
5
c43
8
Layer1
10
280.1250
20
15.5000
30
0.0
0
VERTEX
5
c44
8
Layer1
10
280.1250
20
16.5000
30
0.0
0
VERTEX
5
c45
8
Layer1
10
266.1250
20
16.5000
30
0.0
0
VERTEX
5
c46
8
Layer1
10
266.1250
20
15.5000
30
0.0
0
VERTEX
5
c47
8
Layer1
10
265.3250
20
15.5000
30
0.0
0
VERTEX
5
c48
8
Layer1
10
265.3250
20
3.5000
30
0.0
0
VERTEX
5
c49
8
Layer1
10
266.1250
20
3.5000
30
0.0
0
VERTEX
5
c4a
8
Layer1
10
266.1250
20
2.5000
30
0.0
0
VERTEX
5
c4b
8
Layer1
10
280.1250
20
2.5000
30
0.0
0
VERTEX
5
c4c
8
Layer1
10
280.1250
20
3.5000
30
0.0
0
SEQEND
5
c4d
8
Layer1
0
POLYLINE
5
c4e
8
Layer1
66
1
10
0.0
20
0.0
30
0.0
70
1
0
VERTEX
5
c4f
8
Layer1
10
304.3500
20
3.5000
30
0.0
0
VERTEX
5
c50
8
Layer1
10
305.1500
20
3.5000
30
0.0
0
VERTEX
5
c51
8
Layer1
10
305.1500
20
15.5000
30
0.0
0
VERTEX
5
c52
8
Layer1
10
304.3500
20
15.5000
30
0.0
0
VERTEX
5
c53
8
Layer1
10
304.3500
20
16.5000
30
0.0
0
VERTEX
5
c54
8
Layer1
10
290.3500
20
16.5000
30
0.0
0
VERTEX
5
c55
8
Layer1
10
290.3500
20
15.5000
30
0.0
0
VERTEX
5
c56
8
Layer1
10
289.5500
20
15.5000
30
0.0
0
VERTEX
5
c57
8
Layer1
10
289.5500
20
3.5000
30
0.0
0
VERTEX
5
c58
8
Layer1
10
290.3500
20
3.5000
30
0.0
0
VERTEX
5
c59
8
Layer1
10
290.3500
20
2.5000
30
0.0
0
VERTEX
5
c5a
8
Layer1
10
304.3500
20
2.5000
30
0.0
0
VERTEX
5
c5b
8
Layer1
10
304.3500
20
3.5000
30
0.0
0
SEQEND
5
c5c
8
Layer1
0
POLYLINE
5
c5d
8
Layer1
66
1
10
0.0
20
0.0
30
0.0
70
1
0
VERTEX
5
c5e
8
Layer1
10
323.3500
20
3.5000
30
0.0
0
VERTEX
5
c5f
8
Layer1
10
324.1500
20
3.5000
30
0.0
0
VERTEX
5
c60
8
Layer1
10
324.1500
20
15.5000
30
0.0
0
VERTEX
5
c61
8
Layer1
10
323.3500
20
15.5000
30
0.0
0
VERTEX
5
c62
8
Layer1
10
323.3500
20
16.5000
30
0.0
0
VERTEX
5
c63
8
Layer1
10
309.3500
20
16.5000
30
0.0
0
VERTEX
5
c64
8
Layer1
10
309.3500
20
15.5000
30
0.0
0
VERTEX
5
c65
8
Layer1
10
308.5500
20
15.5000
30
0.0
0
VERTEX
5
c66
8
Layer1
10
308.5500
20
3.5000
30
0.0
0
VERTEX
5
c67
8
Layer1
10
309.3500
20
3.5000
30
0.0
0
VERTEX
5
c68
8
Layer1
10
309.3500
20
2.5000
30
0.0
0
VERTEX
5
c69
8
Layer1
10
323.3500
20
2.5000
30
0.0
0
VERTEX
5
c6a
8
Layer1
10
323.3500
20
3.5000
30
0.0
0
SEQEND
5
c6b
8
Layer1
0
POLYLINE
5
c6c
8
Layer1
66
1
10
0.0
20
0.0
30
0.0
70
1
0
VERTEX
5
c6d
8
Layer1
10
342.3500
20
3.5000
30
0.0
0
VERTEX
5
c6e
8
Layer1
10
343.1500
20
3.5000
30
0.0
0
VERTEX
5
c6f
8
Layer1
10
343.1500
20
15.5000
30
0.0
0
VERTEX
5
c70
8
Layer1
10
342.3500
20
15.5000
30
0.0
0
VERTEX
5
c71
8
Layer1
10
342.3500
20
16.5000
30
0.0
0
VERTEX
5
c72
8
Layer1
10
328.3500
20
16.5000
30
0.0
0
VERTEX
5
c73
8
Layer1
10
328.3500
20
15.5000
30
0.0
0
VERTEX
5
c74
8
Layer1
10
327.5500
20
15.5000
30
0.0
0
VERTEX
5
c75
8
Layer1
10
327.5500
20
3.5000
30
0.0
0
VERTEX
5
c76
8
Layer1
10
328.3500
20
3.5000
30
0.0
0
VERTEX
5
c77
8
Layer1
10
328.3500
20
2.5000
30
0.0
0
VERTEX
5
c78
8
Layer1
10
342.3500
20
2.5000
30
0.0
0
VERTEX
5
c79
8
Layer1
10
342.3500
20
3.5000
30
0.0
0
SEQEND
5
c7a
8
Layer1
0
ENDSEC
0
EOF
